<?xml version="1.0" encoding="UTF-8" standalone="no"?>
<!-- Created with Inkscape (http://www.inkscape.org/) -->

<svg
   xmlns:dc="http://purl.org/dc/elements/1.1/"
   xmlns:cc="http://creativecommons.org/ns#"
   xmlns:rdf="http://www.w3.org/1999/02/22-rdf-syntax-ns#"
   xmlns:svg="http://www.w3.org/2000/svg"
   xmlns="http://www.w3.org/2000/svg"
   xmlns:sodipodi="http://sodipodi.sourceforge.net/DTD/sodipodi-0.dtd"
   xmlns:inkscape="http://www.inkscape.org/namespaces/inkscape"
   width="210mm"
   height="297mm"
   viewBox="0 0 210 297"
   version="1.1"
   id="svg1691"
   inkscape:version="0.92.4 (5da689c313, 2019-01-14)"
   sodipodi:docname="foot pedal.svg">
  <defs
     id="defs1685" />
  <sodipodi:namedview
     id="base"
     pagecolor="#ffffff"
     bordercolor="#666666"
     borderopacity="1.0"
     inkscape:pageopacity="0.0"
     inkscape:pageshadow="2"
     inkscape:zoom="0.98994949"
     inkscape:cx="623.9907"
     inkscape:cy="725.8353"
     inkscape:document-units="mm"
     inkscape:current-layer="layer1"
     showgrid="false"
     inkscape:window-width="1920"
     inkscape:window-height="1137"
     inkscape:window-x="1672"
     inkscape:window-y="-8"
     inkscape:window-maximized="1" />
  <metadata
     id="metadata1688">
    <rdf:RDF>
      <cc:Work
         rdf:about="">
        <dc:format>image/svg+xml</dc:format>
        <dc:type
           rdf:resource="http://purl.org/dc/dcmitype/StillImage" />
        <dc:title />
      </cc:Work>
    </rdf:RDF>
  </metadata>
  <g
     inkscape:label="Layer 1"
     inkscape:groupmode="layer"
     id="layer1">
    <path
       style="fill:none;fill-opacity:1;stroke:#ff0000;stroke-width:0.02349488;stroke-miterlimit:4;stroke-dasharray:none;stroke-dashoffset:0;stroke-opacity:1"
       d="M 9.3784976,34.94088 H 97.450337 c 3.297593,0 5.952333,2.654741 5.952333,5.952335 V 178.96505 c 0,3.29759 -2.65474,5.95233 -5.952333,5.95233 H 9.3784976 c -3.2975935,0 -5.9523349,-2.65474 -5.9523349,-5.95233 V 40.893215 c 0,-3.297594 2.6547414,-5.952335 5.9523349,-5.952335 z"
       id="rect2236" />
    <path
       id="path2544"
       style="fill:none;stroke:#ff0000;stroke-width:0.0254;stroke-miterlimit:4;stroke-dasharray:none"
       d="m 108.17252,159.92581 h 14.99624 m 10,0 h 19.99246 m 10,0 h 19.99247 m 10,0 h 14.99623 m -99.9774,-8.3258 h 14.99624 m 10,0 h 19.99246 m 10,0 h 19.99247 m 10,0 h 14.99623 m -99.9774,-8.3258 h 14.99624 m 10,0 h 19.99246 m 10,0 h 19.99247 m 10,0 h 14.99623 m -99.9774,-8.3258 h 14.99624 m 10,0 h 19.99246 m 10,0 h 19.99247 m 10,0 h 14.99623 m -89.9774,20.8145 h 19.99247 m 10,0 h 19.99247 m 10,0 h 19.99246 m -79.9774,-8.3258 h 19.99247 m 10,0 h 19.99247 m 10,0 h 19.99246 m -79.9774,-8.3258 h 19.99247 m 10,0 h 19.99247 m 10,0 h 19.99246 M 114.11751,34.94088 h 88.07184 c 3.29759,0 5.95234,2.654741 5.95234,5.952335 V 178.96505 c 0,3.29759 -2.65475,5.95233 -5.95234,5.95233 h -88.07184 c -3.29759,0 -5.95233,-2.65474 -5.95233,-5.95233 V 40.893215 c 0,-3.297594 2.65474,-5.952335 5.95233,-5.952335 z" />
    <path
       style="fill:none;fill-opacity:1;stroke:#ff0000;stroke-width:0.02066619;stroke-miterlimit:4;stroke-dasharray:none;stroke-dashoffset:0;stroke-opacity:1"
       d="m 121.64866,172.41234 a 1.7396668,1.7396669 0 0 1 -1.73966,1.73967 1.7396668,1.7396669 0 0 1 -1.73967,-1.73967 1.7396668,1.7396669 0 0 1 1.73967,-1.73967 1.7396668,1.7396669 0 0 1 1.73966,1.73967 z"
       id="path2552" />
    <path
       inkscape:connector-curvature="0"
       style="fill:none;fill-opacity:1;stroke:#ff0000;stroke-width:0.02066619;stroke-miterlimit:4;stroke-dasharray:none;stroke-dashoffset:0;stroke-opacity:1"
       d="m 198.14866,172.41234 a 1.7396668,1.7396669 0 0 1 -1.73966,1.73967 1.7396668,1.7396669 0 0 1 -1.73967,-1.73967 1.7396668,1.7396669 0 0 1 1.73967,-1.73967 1.7396668,1.7396669 0 0 1 1.73966,1.73967 z"
       id="path2552-2" />
    <path
       inkscape:connector-curvature="0"
       style="fill:none;fill-opacity:1;stroke:#ff0000;stroke-width:0.02066619;stroke-miterlimit:4;stroke-dasharray:none;stroke-dashoffset:0;stroke-opacity:1"
       d="m 159.89872,172.41234 a 1.7396668,1.7396669 0 0 1 -1.73966,1.73967 1.7396668,1.7396669 0 0 1 -1.73967,-1.73967 1.7396668,1.7396669 0 0 1 1.73967,-1.73967 1.7396668,1.7396669 0 0 1 1.73966,1.73967 z"
       id="path2552-1" />
    <path
       style="fill:none;fill-opacity:1;stroke:#ff0000;stroke-width:0.01114944;stroke-miterlimit:4;stroke-dasharray:none;stroke-dashoffset:0;stroke-opacity:1"
       d="m 122.14643,46.928001 a 1.9944253,1.9944253 0 0 1 -1.99443,1.994426 1.9944253,1.9944253 0 0 1 -1.99442,-1.994426 1.9944253,1.9944253 0 0 1 1.99442,-1.994425 1.9944253,1.9944253 0 0 1 1.99443,1.994425 z"
       id="path2588-5" />
    <path
       style="fill:none;fill-opacity:1;stroke:#ff0000;stroke-width:0.01114944;stroke-miterlimit:4;stroke-dasharray:none;stroke-dashoffset:0;stroke-opacity:1"
       d="m 198.14843,46.928001 a 1.9944253,1.9944253 0 0 1 -1.99442,1.994426 1.9944253,1.9944253 0 0 1 -1.99443,-1.994426 1.9944253,1.9944253 0 0 1 1.99443,-1.994425 1.9944253,1.9944253 0 0 1 1.99442,1.994425 z"
       id="path2588-1" />
    <path
       style="fill:none;fill-opacity:1;stroke:#ff0000;stroke-width:0.02066619;stroke-miterlimit:4;stroke-dasharray:none;stroke-dashoffset:0;stroke-opacity:1"
       d="m 16.902303,172.43085 a 1.7396668,1.7396669 0 0 1 -1.739667,1.73966 1.7396668,1.7396669 0 0 1 -1.739667,-1.73966 1.7396668,1.7396669 0 0 1 1.739667,-1.73967 1.7396668,1.7396669 0 0 1 1.739667,1.73967 z"
       id="path2552-9" />
    <path
       style="fill:none;fill-opacity:1;stroke:#ff0000;stroke-width:0.02066619;stroke-miterlimit:4;stroke-dasharray:none;stroke-dashoffset:0;stroke-opacity:1"
       d="m 93.402303,172.43085 a 1.7396668,1.7396669 0 0 1 -1.739667,1.73966 1.7396668,1.7396669 0 0 1 -1.739667,-1.73966 1.7396668,1.7396669 0 0 1 1.739667,-1.73967 1.7396668,1.7396669 0 0 1 1.739667,1.73967 z"
       id="path2552-2-4" />
    <path
       style="fill:none;fill-opacity:1;stroke:#ff0000;stroke-width:0.02066619;stroke-miterlimit:4;stroke-dasharray:none;stroke-dashoffset:0;stroke-opacity:1"
       d="m 55.152364,172.43085 a 1.7396668,1.7396669 0 0 1 -1.739667,1.73966 1.7396668,1.7396669 0 0 1 -1.739667,-1.73966 1.7396668,1.7396669 0 0 1 1.739667,-1.73967 1.7396668,1.7396669 0 0 1 1.739667,1.73967 z"
       id="path2552-1-1" />
    <path
       style="fill:none;fill-opacity:1;stroke:#ff0000;stroke-width:0.01114944;stroke-miterlimit:4;stroke-dasharray:none;stroke-dashoffset:0;stroke-opacity:1"
       d="m 55.401507,66.94651 a 1.9944253,1.9944253 0 0 1 -1.994425,1.994426 1.9944253,1.9944253 0 0 1 -1.994426,-1.994426 1.9944253,1.9944253 0 0 1 1.994426,-1.994425 1.9944253,1.9944253 0 0 1 1.994425,1.994425 z"
       id="path2588-3" />
    <path
       style="fill:none;fill-opacity:1;stroke:#ff0000;stroke-width:0.01114944;stroke-miterlimit:4;stroke-dasharray:none;stroke-dashoffset:0;stroke-opacity:1"
       d="M 17.400065,46.94651 A 1.9944253,1.9944253 0 0 1 15.40564,48.940936 1.9944253,1.9944253 0 0 1 13.411214,46.94651 1.9944253,1.9944253 0 0 1 15.40564,44.952085 1.9944253,1.9944253 0 0 1 17.400065,46.94651 Z"
       id="path2588-5-3" />
    <path
       style="fill:none;fill-opacity:1;stroke:#ff0000;stroke-width:0.01114944;stroke-miterlimit:4;stroke-dasharray:none;stroke-dashoffset:0;stroke-opacity:1"
       d="m 93.402071,46.94651 a 1.9944253,1.9944253 0 0 1 -1.994425,1.994426 1.9944253,1.9944253 0 0 1 -1.994425,-1.994426 1.9944253,1.9944253 0 0 1 1.994425,-1.994425 1.9944253,1.9944253 0 0 1 1.994425,1.994425 z"
       id="path2588-1-5" />
    <path
       style="fill:none;fill-opacity:1;stroke:#ff0000;stroke-width:0.01114944;stroke-miterlimit:4;stroke-dasharray:none;stroke-dashoffset:0;stroke-opacity:1"
       d="m 55.401507,56.946999 a 1.9944253,1.9944253 0 0 1 -1.994425,1.994425 1.9944253,1.9944253 0 0 1 -1.994426,-1.994425 1.9944253,1.9944253 0 0 1 1.994426,-1.994426 1.9944253,1.9944253 0 0 1 1.994425,1.994426 z"
       id="path2588-3-4" />
    <path
       style="fill:none;fill-opacity:1;stroke:#ff0000;stroke-width:0.0254;stroke-miterlimit:4;stroke-dasharray:none;stroke-dashoffset:0;stroke-opacity:1"
       d="m 40.919983,69.646912 h 6.000152 v 5.014773 h -6.000152 z"
       id="rect2753" />
    <path
       style="fill:none;fill-opacity:1;stroke:#ff0000;stroke-width:0.0254;stroke-miterlimit:4;stroke-dasharray:none;stroke-dashoffset:0;stroke-opacity:1"
       d="m 40.919983,49.6968 h 6.000152 v 5.000119 h -6.000152 z"
       id="rect2755" />
    <path
       style="fill:none;fill-opacity:1;stroke:#ff0000;stroke-width:0.0254;stroke-miterlimit:4;stroke-dasharray:none;stroke-dashoffset:0;stroke-opacity:1"
       d="m 59.894016,49.696709 h 6.00015 v 5.000209 h -6.00015 z"
       id="rect2759" />
    <path
       style="fill:none;fill-opacity:1;stroke:#ff0000;stroke-width:0.0254;stroke-miterlimit:4;stroke-dasharray:none;stroke-dashoffset:0;stroke-opacity:1"
       d="m 59.894016,69.671196 h 6.000152 v 4.990909 h -6.000152 z"
       id="rect2761" />
    <path
       style="fill:none;fill-opacity:1;stroke:#ff0000;stroke-width:0.03500407;stroke-miterlimit:4;stroke-dasharray:none;stroke-dashoffset:0;stroke-opacity:1"
       d="m 99.619054,4.948984 v 5.00021 h -6.00015 v 14.96498 h 6.00015 v 5.00021 l -9.9138,-5.3e-4 -4.4955,1.40556 -1.3003,-4.8528 5.79571,-1.55295 -3.86934,-14.44059 -5.79571,1.55296 -1.29415,-4.82983 10.90781,-2.24722 z"
       id="path2832"
       inkscape:connector-curvature="0"
       sodipodi:nodetypes="ccccccccccccccc" />
    <path
       style="fill:none;fill-opacity:1;stroke:#ff0000;stroke-width:0.03500407;stroke-miterlimit:4;stroke-dasharray:none;stroke-dashoffset:0;stroke-opacity:1"
       d="m 99.619064,4.948982 v 5.000212 h -6.00016 v 14.949991 h 6.00016 v 5.023982 h 12.973876 v -4.999694 h 6.00015 V 9.97348 h -6.00015 V 4.948982 Z"
       id="path2830"
       inkscape:connector-curvature="0" />
    <path
       style="fill:none;fill-opacity:1;stroke:#ff0000;stroke-width:0.06959312;stroke-miterlimit:4;stroke-dasharray:none;stroke-dashoffset:0;stroke-opacity:1"
       d="m 110.0712,17.436073 a 3.9652041,3.9652036 0 0 1 -3.96521,3.965205 3.9652041,3.9652036 0 0 1 -3.9652,-3.965205 3.9652041,3.9652036 0 0 1 3.9652,-3.965202 3.9652041,3.9652036 0 0 1 3.96521,3.965202 z"
       id="path2703-2-1-4"
       inkscape:connector-curvature="0" />
    <path
       style="fill:none;fill-opacity:1;stroke:#ff0000;stroke-width:0.03500407;stroke-miterlimit:4;stroke-dasharray:none;stroke-dashoffset:0;stroke-opacity:1"
       d="M 112.59294,4.9489804 V 9.94919 h 6.00015 v 14.96498 h -6.00015 v 5.00021 l 9.9138,-5.3e-4 4.4955,1.40556 1.3003,-4.8528 -5.79571,-1.55295 3.86934,-14.44059 5.79571,1.55296 1.29415,-4.82983 -10.90781,-2.2472196 z"
       id="path2832-7"
       inkscape:connector-curvature="0"
       sodipodi:nodetypes="ccccccccccccccc" />
    <path
       style="fill:#000000;stroke:#0000ff;stroke-width:0.01776848;stroke-miterlimit:4;stroke-dasharray:none"
       d="m 187.40774,84.636416 c -0.74259,-0.322939 -2.22108,-1.673497 -2.5694,-2.347069 -0.14488,-0.280169 -0.26483,-0.700939 -0.26654,-0.935042 -0.002,-0.388836 -0.0364,-0.373621 -0.38835,0.175894 -0.21188,0.330851 -0.46392,0.60154 -0.56007,0.60154 -0.0962,0 -0.59781,0.395628 -1.11476,0.879169 l -0.93989,0.879169 h -2.09398 c -2.06403,0 -2.10207,-0.0077 -2.66085,-0.543107 -0.64488,-0.617833 -1.20379,-1.971133 -1.3944,-3.376284 l -0.12995,-0.957987 -0.58607,1.143073 c -0.80152,1.563332 -1.66255,1.999465 -4.18744,2.121045 -2.36227,0.113747 -2.92577,-0.08558 -4.54249,-1.606844 -0.71259,-0.670522 -1.07506,-0.969906 -0.80549,-0.665303 0.6504,0.734915 0.86828,2.215253 0.44618,3.031499 -0.53632,1.037133 -0.98129,1.188976 -3.20721,1.094467 -3.08555,-0.13101 -3.84088,-0.705079 -4.52942,-3.44246 -0.23786,-0.945682 -0.49172,-1.660192 -0.56412,-1.587789 -0.0724,0.0724 -0.13164,0.690193 -0.13164,1.372874 0,1.318057 -0.4353,2.620655 -1.06673,3.192086 -0.18689,0.169144 -0.70013,0.434657 -1.14051,0.590033 -2.37811,0.839043 -4.57838,-0.34785 -5.2589,-2.836801 -0.38587,-1.411335 -0.73619,-4.562449 -0.59242,-5.32883 0.0641,-0.341659 0.0556,-0.62119 -0.0187,-0.62119 -0.0744,0 -1.24938,0.348717 -2.61102,0.774937 -2.32207,0.726842 -2.46921,0.800764 -2.37119,1.191292 0.0575,0.229003 0.0144,0.83637 -0.0957,1.349698 -0.71522,3.33492 -6.83434,5.575183 -6.83434,2.502103 0,-0.578386 1.11592,-1.74609 1.66866,-1.74609 0.19067,0 0.58036,-0.215544 0.86599,-0.478986 0.38936,-0.359126 0.42668,-0.442819 0.14914,-0.33446 -0.2036,0.0795 -0.67873,0.158426 -1.05584,0.175411 -0.3771,0.017 -0.91849,0.116013 -1.20307,0.220064 -0.28458,0.10405 -1.01716,0.334313 -1.62795,0.511697 -0.6108,0.177384 -1.25516,0.395446 -1.43192,0.484576 -0.17677,0.08913 -0.53871,0.162056 -0.80433,0.162056 -0.58438,0 -1.4927,0.613013 -1.652,1.11491 -0.15183,0.478364 -0.84063,0.637664 -1.63032,0.377041 -0.55422,-0.18291 -0.6816,-0.350172 -1.01891,-1.338064 -0.38155,-1.117462 -0.38188,-1.136126 -0.0323,-1.821423 0.39513,-0.774496 1.1381,-1.054406 1.71893,-0.647578 0.40624,0.284548 1.71055,0.16268 2.25449,-0.21064 0.2008,-0.137817 0.5756,-0.253222 0.83291,-0.256461 0.25729,-0.0035 0.62948,-0.128171 0.82708,-0.277628 0.19761,-0.149465 0.54142,-0.271746 0.76402,-0.271746 0.5404,0 1.62427,-0.463709 1.92179,-0.822205 0.30187,-0.36375 0.0533,-0.37751 -1.27615,-0.07064 -0.80083,0.184855 -1.0389,0.172004 -1.57831,-0.08523 -0.34938,-0.166604 -0.77382,-0.514432 -0.94321,-0.772956 -0.28761,-0.438945 -0.28725,-0.501666 0.006,-0.948215 0.61634,-0.940659 2.94984,-1.487879 4.97048,-1.165606 1.26116,0.201142 2.96139,0.905291 3.57279,1.479661 l 0.39358,0.369752 3.92727,-1.187243 3.92728,-1.187241 -0.9714,-0.128864 c -0.53427,-0.07087 -1.19988,-0.24701 -1.47914,-0.391424 -0.6368,-0.329305 -1.79501,-1.666439 -1.89781,-2.191001 -0.072,-0.367766 -0.0791,-0.365072 -0.10259,0.03932 -0.0729,1.2547 -2.11983,2.459074 -4.39317,2.584789 -1.27122,0.0703 -1.33708,0.05246 -2.02215,-0.547695 -0.82912,-0.726346 -1.74825,-2.103103 -1.76667,-2.646301 -0.007,-0.209115 -0.1309,0.0028 -0.27514,0.471236 -0.54196,1.759534 -2.21867,2.753065 -4.65103,2.755968 -1.6538,0.0021 -2.2487,-0.152606 -2.83196,-0.73586 l -0.38226,-0.382274 0.11484,0.457594 c 0.42313,1.685886 -1.9539,3.490268 -4.16178,3.15918 -1.89537,-0.284232 -2.81828,-1.121681 -3.45706,-3.136962 -0.82766,-2.611148 -0.78307,-4.982135 0.1401,-7.449527 0.79213,-2.117142 2.13388,-2.983146 4.27771,-2.760956 1.81881,0.188507 2.80954,0.940037 2.80954,2.131197 v 0.690523 l 0.37995,-0.563793 c 0.96563,-1.432909 3.03704,-1.389174 4.52167,0.09546 0.34374,0.343736 0.77566,0.876196 0.95982,1.183241 0.18415,0.307045 0.65,0.724842 1.03522,0.928438 0.55778,0.294803 0.76469,0.558608 1.01619,1.295616 l 0.3158,0.925444 0.008,-0.753034 c 0.01,-0.914706 0.46086,-2.493596 0.93506,-3.273346 0.81847,-1.345864 2.9166,-2.123564 5.21079,-1.93144 1.50431,0.125973 2.49245,0.604806 3.37441,1.635175 0.73066,0.853615 0.84161,1.493301 0.37462,2.160024 -0.25191,0.359644 -0.18039,0.339225 0.50899,-0.145323 2.59258,-1.822276 8.24104,-1.103164 9.0262,1.149138 0.441,1.265046 0.22247,2.161899 -0.79653,3.268848 -0.31863,0.346128 -0.47864,0.572375 -0.35557,0.502764 0.61483,-0.347765 18.89127,-5.716812 20.54968,-6.036848 3.43887,-0.663639 4.17244,-0.367137 1.94615,0.786583 -1.82572,0.946137 -3.41775,1.495211 -13.55771,4.675923 -5.03904,1.580646 -9.27325,2.914023 -9.40937,2.963069 -0.18047,0.06499 -0.11022,0.251955 0.25941,0.690312 0.65599,0.77798 1.00144,1.61824 1.02466,2.492373 l 0.0186,0.700022 0.16571,-0.740351 c 0.0911,-0.407199 0.20768,-0.921338 0.25898,-1.142542 0.15757,-0.679371 0.99703,-1.510929 2.2101,-2.189321 1.06901,-0.597818 1.27734,-0.647326 2.71338,-0.644807 1.76791,0.0028 2.31283,0.20773 2.80718,1.054181 0.4765,0.815875 0.28248,2.095471 -0.443,2.921747 -0.59047,0.672516 -0.68073,1.469957 -0.27239,2.406888 0.23335,0.535475 0.23896,0.522092 0.15712,-0.375461 -0.10842,-1.189068 0.30265,-2.223592 1.009,-2.539262 0.28523,-0.127478 1.14329,-0.866899 1.90677,-1.643165 1.64221,-1.669685 2.5759,-2.197835 3.88543,-2.197835 1.76996,0 2.9142,0.889564 3.60102,2.799564 l 0.34394,0.95644 0.32948,-0.642232 c 0.41767,-0.814125 1.61993,-1.906327 2.52486,-2.293736 0.95494,-0.408822 3.39037,-0.271836 4.40889,0.247989 1.50802,0.769634 1.96189,1.710014 1.97317,4.088185 0.006,1.230607 0.0466,1.554777 0.1312,1.044248 0.26415,-1.593385 0.71397,-2.151756 2.46028,-3.053954 0.88669,-0.458098 1.84121,-0.999477 2.12115,-1.20308 0.67981,-0.494404 3.00668,-0.516888 3.89845,-0.03764 0.95389,0.5126 1.14774,1.106893 1.19972,3.677831 0.0364,1.800947 -0.0262,2.513792 -0.29657,3.377872 -0.84461,2.698914 -4.37525,4.557727 -6.72008,3.537992 z m 2.25305,-0.290179 c -0.049,-0.0792 0.0813,-0.09948 0.28932,-0.04505 0.20807,0.05443 0.3649,0.02581 0.34851,-0.06352 -0.0668,-0.363708 0.0294,-0.517273 0.17757,-0.283561 0.12603,0.198853 0.31207,0.151732 0.9226,-0.233683 0.42061,-0.26552 0.76475,-0.525283 0.76475,-0.577252 0,-0.05197 -0.21533,0.04659 -0.47851,0.219049 -0.33544,0.21979 -0.51677,0.251654 -0.60643,0.106582 -0.0831,-0.13441 -0.22352,-0.146492 -0.40065,-0.03449 -0.41586,0.26298 -2.10064,0.210899 -2.49453,-0.07713 -0.30294,-0.221512 -0.20578,-0.232795 0.73476,-0.0853 0.72496,0.113683 1.14754,0.106282 1.27619,-0.02239 0.13304,-0.13304 0.0953,-0.192319 -0.12233,-0.192319 -0.17306,0 -0.31465,-0.07514 -0.31465,-0.166982 0,-0.09184 -0.25235,-0.254956 -0.56078,-0.362469 -0.60719,-0.211669 -1.27296,-0.766172 -0.91992,-0.766172 0.12499,0 0.0925,-0.118986 -0.0793,-0.29085 -0.15996,-0.159972 -0.29084,-0.425759 -0.29084,-0.590641 0,-0.257468 0.0348,-0.252145 0.24678,0.0377 0.23779,0.325198 0.24688,0.324799 0.24964,-0.01091 0.002,-0.191612 -0.0887,-0.409584 -0.20051,-0.484372 -0.12154,-0.08127 -0.0589,-0.137125 0.15591,-0.138818 0.35565,-0.0028 0.35565,-0.0056 0,-0.292096 -0.23242,-0.187121 -0.26125,-0.262441 -0.0816,-0.213313 0.19309,0.05281 0.36218,-0.18319 0.55526,-0.774999 0.25635,-0.78566 0.34163,-0.866739 1.11171,-1.056868 1.59219,-0.393103 2.54718,0.08142 2.04653,1.016903 -0.14225,0.265807 -0.13267,0.391291 0.036,0.471389 0.12644,0.06002 -0.0809,0.07224 -0.4608,0.02714 -0.37988,-0.04512 -0.73547,-0.0096 -0.79021,0.07898 -0.0547,0.08856 0.29772,0.214565 0.78323,0.28 1.13067,0.152396 1.38643,0.241896 0.74394,0.260343 -0.27995,0.0081 -0.49913,0.07708 -0.48707,0.153425 0.0698,0.442785 -0.06,0.766913 -0.32829,0.819329 -0.23074,0.04506 -0.18047,0.127115 0.2037,0.332439 0.467,0.249584 0.53192,0.242693 0.76907,-0.08163 0.17911,-0.244946 0.19713,-0.392474 0.0584,-0.478203 -0.12922,-0.07986 -0.0963,-0.164001 0.0926,-0.236461 0.16123,-0.06184 0.29316,-0.320721 0.29316,-0.575216 0,-0.361567 -0.0708,-0.437314 -0.32391,-0.346493 -0.17815,0.06394 -0.26907,0.05506 -0.20205,-0.01972 0.067,-0.07476 0.27524,-0.158433 0.46272,-0.185953 0.60023,-0.08809 0.40074,-0.575035 -0.21439,-0.523338 l -0.55527,0.04666 0.49048,-0.274243 c 0.38588,-0.215754 0.49049,-0.413299 0.49049,-0.926346 0,-0.358665 -0.075,-0.698442 -0.16659,-0.755063 -0.26053,-0.161022 -0.19903,-0.674656 0.0648,-0.541022 0.12725,0.06443 0.0697,-0.01392 -0.12792,-0.174166 -0.1976,-0.160245 -0.41327,-0.291354 -0.47927,-0.291354 -0.066,0 -0.21489,-0.208228 -0.33085,-0.462722 -0.26377,-0.578917 -0.17108,-0.583303 0.39359,-0.01861 0.27091,0.270899 0.53453,0.388192 0.67599,0.300762 0.15696,-0.09701 0.16831,-0.182609 0.0351,-0.264924 -0.10822,-0.06688 -0.15201,-0.238238 -0.0973,-0.380792 0.0674,-0.175628 -0.23415,-0.417013 -0.93531,-0.748711 -1.02802,-0.486331 -1.04087,-0.487499 -1.97162,-0.178349 -0.51527,0.171151 -0.98147,0.427444 -1.03601,0.56955 -0.0545,0.142106 -0.20355,0.25837 -0.33115,0.25837 -0.1276,0 -0.54086,0.209606 -0.91836,0.46578 -0.3775,0.256181 -0.74899,0.427073 -0.82554,0.37977 -0.27454,-0.169675 -1.3121,0.61525 -1.19987,0.907724 0.0597,0.155481 0.15013,0.282701 0.20103,0.282701 0.0509,0 0.0456,-0.122267 -0.0117,-0.271704 -0.0574,-0.149437 -0.0246,-0.320931 0.0728,-0.381099 0.26264,-0.16233 0.21441,0.518063 -0.0881,1.241953 -0.21209,0.507605 -0.62292,3.659426 -0.52634,4.038056 0.013,0.05093 0.0856,0.25197 0.16132,0.446814 0.10643,0.273782 0.078,0.320028 -0.1251,0.203561 -0.14455,-0.08288 0.0287,0.160427 0.385,0.540694 0.69469,0.741435 1.5458,1.273384 1.73487,1.084311 0.0638,-0.0638 0.11601,-0.02148 0.11601,0.09412 0,0.115565 0.12494,0.162182 0.27763,0.103589 0.1527,-0.05863 0.27763,-0.03372 0.27763,0.05519 0,0.08896 0.33145,0.170444 0.73656,0.181063 0.4051,0.01064 0.6965,-0.04547 0.64755,-0.124687 z m 1.02205,-0.548703 c 0,-0.101798 0.0882,-0.185087 0.19601,-0.185087 0.1078,0 0.14453,0.08329 0.0816,0.185087 -0.0629,0.101798 -0.15113,0.185086 -0.19601,0.185086 -0.0449,0 -0.0816,-0.08329 -0.0816,-0.185086 z m -2.31361,-0.925444 c -0.0629,-0.101798 -0.0262,-0.185086 0.0816,-0.185086 0.10781,0 0.19601,0.08329 0.19601,0.185086 0,0.101798 -0.0368,0.185093 -0.0816,0.185093 -0.0449,0 -0.13309,-0.08329 -0.19601,-0.185093 z m -1.22668,-0.312284 c -0.22362,-0.274902 -0.21344,-0.297063 0.085,-0.185087 0.18647,0.06995 0.46208,0.127199 0.61245,0.127199 0.15039,0 0.22195,0.08329 0.15904,0.185086 -0.17368,0.281008 -0.57266,0.221749 -0.85651,-0.127198 z m -0.53165,-0.613153 c 0,-0.101798 0.12985,-0.185093 0.28855,-0.185093 0.15871,0 0.23708,0.08329 0.17416,0.185093 -0.0629,0.101797 -0.19276,0.185086 -0.28856,0.185086 -0.0958,0 -0.17415,-0.08329 -0.17415,-0.185086 z m 0.46271,-2.529483 c -0.32531,-0.260693 -0.32908,-0.282415 -0.0311,-0.179203 0.18647,0.06457 0.46208,0.117447 0.61246,0.117447 0.15038,0 0.22195,0.08329 0.15903,0.185085 -0.15505,0.250865 -0.30447,0.225975 -0.74036,-0.123329 z m -0.64498,-0.293117 c -0.002,-0.217615 0.13383,-0.319105 0.41363,-0.309291 0.27826,0.0098 0.32432,0.04967 0.1388,0.120294 -0.15269,0.05813 -0.33882,0.197307 -0.41361,0.30929 -0.0839,0.12559 -0.13706,0.0795 -0.13882,-0.120293 z m 1.82273,0.06583 c 0.21301,-0.13495 0.21301,-0.175475 0,-0.260182 -0.17591,-0.06995 -0.15423,-0.104765 0.0716,-0.11495 0.17815,-0.0081 0.32391,0.110319 0.32391,0.263015 0,0.152704 -0.14576,0.276363 -0.32391,0.274803 -0.25348,-0.0021 -0.26905,-0.03756 -0.0716,-0.162686 z m -1.73302,-0.759924 c 0.0629,-0.101799 0.19277,-0.185086 0.28857,-0.185086 0.0958,0 0.17415,0.08329 0.17415,0.185086 0,0.101797 -0.12985,0.185092 -0.28855,0.185092 -0.1587,0 -0.23708,-0.08329 -0.17417,-0.185092 z m 1.71539,-0.740352 c -0.12714,-0.203596 -0.41937,-0.370179 -0.64937,-0.370179 -0.71007,0 -0.46112,-0.315677 0.33293,-0.422183 0.51374,-0.0689 0.92375,-0.281358 1.29723,-0.67218 0.31075,-0.325163 0.72488,-0.565136 0.96093,-0.556818 0.27639,0.0097 0.32218,0.04953 0.1372,0.119132 -0.15269,0.0575 -0.58013,0.418889 -0.94986,0.803115 -0.4821,0.501008 -0.61559,0.75523 -0.47198,0.898854 0.28439,0.28438 -0.10602,0.256363 -0.43338,-0.03113 -0.1449,-0.127247 -0.10701,-0.04393 0.0842,0.185086 0.19565,0.234342 0.25489,0.416455 0.13547,0.416455 -0.11671,0 -0.31623,-0.166584 -0.44338,-0.370179 z m 1.39677,-0.323903 c -0.0634,-0.178147 -0.14419,-0.378602 -0.17953,-0.445458 -0.10574,-0.200014 0.67241,0.05757 0.80062,0.265037 0.0738,0.119336 0.026,0.134335 -0.12687,0.03987 -0.17799,-0.11001 -0.21277,-0.06716 -0.12696,0.156489 0.065,0.169395 0.0349,0.307996 -0.0669,0.307996 -0.1018,0 -0.23696,-0.145757 -0.30036,-0.323904 z m -26.45839,6.153042 c 0.65665,-0.342463 0.6866,-0.3424 0.55476,0.0014 -0.17127,0.446353 0.30967,0.319406 0.70788,-0.186848 0.20095,-0.255468 0.42116,-0.430509 0.48936,-0.388983 0.0682,0.04155 0.13768,-0.311663 0.15439,-0.784863 0.0237,-0.671621 -0.002,-0.758854 -0.12037,-0.397644 -0.14973,0.459581 -0.15106,0.458958 -0.19638,-0.09254 -0.0251,-0.305394 -0.0535,-0.777608 -0.0631,-1.049361 -0.01,-0.271761 -0.0599,-0.47998 -0.11164,-0.462722 -0.0517,0.01728 -0.13313,-0.05191 -0.1808,-0.153712 -0.0476,-0.101798 -0.27671,-0.361217 -0.50899,-0.576489 -0.41715,-0.386597 -0.58406,-0.748389 -0.25003,-0.541946 0.0948,0.05855 0.23257,0.009 0.30623,-0.110221 0.0737,-0.119188 0.0586,-0.172836 -0.0335,-0.11923 -0.0921,0.05359 -0.32774,-0.05849 -0.5237,-0.249032 -0.19596,-0.190556 -0.26998,-0.346478 -0.16448,-0.346478 0.10949,0 0.14995,-0.218447 0.0943,-0.508997 l -0.0975,-0.50899 -0.15735,0.471375 c -0.11684,0.35004 -0.36278,0.526326 -0.95543,0.684828 -0.43894,0.117406 -0.99985,0.387668 -1.24646,0.600589 l -0.44838,0.387129 1.29114,-0.05394 c 1.4554,-0.06086 1.70785,0.173754 1.02911,0.956343 -0.20724,0.238966 -0.37682,0.498407 -0.37682,0.576538 0,0.200925 -1.08403,0.423478 -1.84193,0.378154 -0.8159,-0.04883 -1.067,-0.266191 -1.33301,-1.154076 -0.24313,-0.811488 -0.66889,-0.941079 -1.05589,-0.321378 -0.21708,0.347597 -0.2111,0.382868 0.048,0.283434 0.32172,-0.123448 0.41202,0.151425 0.11089,0.337532 -0.27975,0.172885 -0.22178,0.462722 0.0925,0.462722 0.15271,0 0.27763,0.08329 0.27763,0.185093 0,0.101797 -0.0844,0.185086 -0.18757,0.185086 -0.25884,0 0.29803,1.284864 0.77858,1.796379 0.21354,0.227304 0.45942,0.369276 0.54643,0.31551 0.087,-0.05379 0.15819,-0.0049 0.15819,0.109171 0,0.113816 0.0833,0.15546 0.18508,0.09254 0.1018,-0.06289 0.18509,-0.02323 0.18509,0.08814 0,0.14629 0.10564,0.145989 0.38044,-0.0014 0.20924,-0.111984 0.47993,-0.163135 0.60153,-0.11367 0.12161,0.04946 0.0545,0.102365 -0.14907,0.117559 l -0.37017,0.02763 0.37017,0.159069 c 0.5786,0.248634 1.4306,0.208941 2.01086,-0.09368 z m -4.05444,-1.029158 c -0.19618,-0.317427 -0.0205,-0.348571 0.36719,-0.06513 0.30022,0.219533 0.30953,0.262498 0.0569,0.262498 -0.16615,0 -0.35698,-0.08883 -0.42408,-0.197404 z m -0.17748,-1.283304 c -0.0629,-0.101799 -0.0311,-0.185087 0.0707,-0.185087 0.10179,0 0.23656,0.08329 0.29948,0.185087 0.0629,0.101797 0.0311,0.185092 -0.0707,0.185092 -0.1018,0 -0.23656,-0.08329 -0.29948,-0.185092 z m -7.31098,2.221059 c -0.39011,-0.252102 0.42623,-0.244554 1.35192,0.01252 0.57014,0.158321 0.86845,0.132774 1.56767,-0.134257 0.47494,-0.181386 1.01485,-0.481099 1.19977,-0.666031 0.18495,-0.184939 0.42937,-0.278699 0.54319,-0.20836 0.1258,0.07775 0.15515,0.04414 0.0749,-0.08579 -0.0726,-0.117523 -0.0517,-0.213683 0.0466,-0.213683 0.0983,0 0.13512,-0.166576 0.0819,-0.370179 -0.0532,-0.203596 -0.006,-0.370172 0.10529,-0.370172 0.13284,0 0.14814,-0.142708 0.0447,-0.416454 -0.22838,-0.604052 -0.24568,-3.237438 -0.0222,-3.375578 0.10383,-0.06415 0.18879,-0.199958 0.18879,-0.301763 0,-0.101798 -0.0775,-0.137167 -0.17231,-0.0786 -0.24173,0.149402 -0.43468,-0.221861 -0.26042,-0.501085 0.24041,-0.385247 0.27,-0.914846 0.0433,-0.77472 -0.14027,0.08669 -0.16352,-0.0049 -0.0733,-0.289542 0.0901,-0.28375 0.0669,-0.37616 -0.0727,-0.289885 -0.18636,0.115173 -0.2897,-0.122204 -0.22225,-0.510494 0.0145,-0.08392 -0.039,-0.112123 -0.11894,-0.06268 -0.19586,0.12105 -0.88695,-0.396475 -0.73387,-0.549556 0.0664,-0.06646 0.24779,-0.01546 0.40294,0.113291 0.51245,0.425296 0.2931,0.0832 -0.30178,-0.470648 -0.32115,-0.298993 -0.52445,-0.439511 -0.45179,-0.312264 0.16601,0.290781 0.13602,0.28934 -0.79193,-0.03805 -0.63592,-0.224373 -0.76362,-0.227268 -0.76362,-0.01735 0,0.167065 -0.13463,0.216894 -0.39912,0.147723 -0.29772,-0.07785 -0.3609,-0.04254 -0.2487,0.139028 0.11276,0.182442 0.0478,0.216566 -0.25927,0.136265 -0.29952,-0.07833 -0.3613,-0.04883 -0.22977,0.109654 0.28285,0.340812 0.26133,0.508982 -0.10016,0.783037 -0.39691,0.300882 -0.91608,0.341295 -1.07528,0.08369 -0.0622,-0.10063 5.5e-4,-0.139343 0.13957,-0.08602 0.29791,0.114321 0.98198,-0.569801 0.7272,-0.727255 -0.29896,-0.184764 -1.68229,0.963408 -1.95919,1.626116 -0.14517,0.347444 -0.31079,1.201577 -0.36803,1.898073 -0.0681,0.828697 -0.0482,1.106445 0.0575,0.803639 0.0889,-0.254495 0.16993,-0.733412 0.18007,-1.064255 0.0101,-0.330844 0.0857,-0.60154 0.16788,-0.60154 0.0822,0 0.13211,0.250074 0.11095,0.555719 -0.0211,0.305647 0.0328,0.599827 0.12013,0.653734 0.0872,0.05394 0.10844,0.228695 0.0472,0.388409 -0.0613,0.159707 0.005,0.363988 0.14689,0.453957 0.21631,0.136971 0.21317,0.164995 -0.0193,0.172298 -0.21317,0.007 -0.19482,0.07136 0.0791,0.278552 0.19616,0.14841 0.30228,0.324205 0.23583,0.390662 -0.0664,0.06646 -0.2637,0.0049 -0.43831,-0.136901 -0.18849,-0.153012 -0.13924,-0.01427 0.12119,0.341526 0.45748,0.624939 0.40268,1.012936 -0.0858,0.607527 -0.38057,-0.315844 -0.37567,0.02589 0.0169,1.177995 0.21122,0.619896 0.37703,0.847529 0.56487,0.775448 0.15406,-0.05911 0.21622,-0.02162 0.14779,0.08907 -0.14963,0.242106 0.40202,1.10122 0.70469,1.097442 0.14572,-0.0021 0.12762,-0.06716 -0.0505,-0.18226 z m -0.92545,-1.650657 c 0,-0.195271 -0.0535,-0.507604 -0.11882,-0.694075 -0.10595,-0.302309 -0.088,-0.308969 0.16522,-0.06142 0.44468,0.434642 0.59301,1.11053 0.2437,1.11053 -0.16259,0 -0.2901,-0.156055 -0.2901,-0.355041 z m 1.9897,0.157504 c -0.40669,-0.239861 -0.42149,-0.835937 -0.0245,-0.988271 0.25095,-0.09629 0.22101,-0.176516 -0.18508,-0.495957 -1.268,-0.9974 0.0281,-3.31562 1.85375,-3.31562 0.53934,0 1.162,0.928068 1.04241,1.553693 -0.0823,0.430319 -0.16681,0.492852 -0.53981,0.399231 -0.46542,-0.11681 -1.17502,0.158693 -1.17502,0.456209 0,0.09628 0.20209,0.225772 0.4491,0.287766 0.57805,0.145086 1.08154,0.703233 1.00155,1.110299 -0.13971,0.711026 -1.76831,1.3784 -2.42237,0.99265 z m 1.27605,-0.577672 c 0.92157,-0.33325 0.91225,-0.653747 -0.0319,-1.097567 -0.45521,-0.213977 -0.82766,-0.501568 -0.82766,-0.639092 0,-0.371753 0.71659,-0.97018 1.32063,-1.102849 0.62213,-0.136643 0.65834,-0.283932 0.1769,-0.719631 -0.32414,-0.29334 -0.39928,-0.296013 -0.90909,-0.03239 -0.65773,0.340127 -1.3288,1.141422 -1.3288,1.586677 0,0.37546 0.48345,0.8353 1.06426,1.012292 0.51617,0.1573 0.54301,0.592118 0.0462,0.749774 -0.2036,0.06464 -0.37018,0.195167 -0.37018,0.290109 0,0.224771 0.12636,0.217811 0.85961,-0.04736 z m -4.19119,-4.929368 c 0,-0.108493 0.18511,-0.326919 0.41136,-0.485388 0.22625,-0.158467 0.30954,-0.288129 0.18508,-0.288129 -0.12444,0 -0.22626,-0.08821 -0.22626,-0.196012 0,-0.107808 0.0926,-0.138776 0.20577,-0.06884 0.11319,0.06995 0.27772,0.01238 0.36563,-0.12789 0.10168,-0.162254 0.13149,-0.02638 0.0819,0.37341 -0.0778,0.627311 -0.46824,1.272769 -0.46824,0.774035 0,-0.196587 -0.0546,-0.199413 -0.27763,-0.01435 -0.17577,0.14587 -0.27763,0.158035 -0.27763,0.03316 z m 1.43443,-0.711005 c 0.12725,-0.05135 0.33548,-0.05135 0.46272,0 0.12725,0.05135 0.0232,0.09335 -0.23136,0.09335 -0.25449,0 -0.35861,-0.04197 -0.23136,-0.09335 z m 4.69709,7.572387 c 0.23023,-0.293564 0.22369,-0.300112 -0.0699,-0.06989 -0.17814,0.139714 -0.32389,0.285471 -0.32389,0.323904 0,0.152334 0.15198,0.05429 0.39377,-0.254019 z m 24.88749,0.165877 c -0.0537,-0.08691 0.11187,-0.253488 0.36797,-0.370172 0.59328,-0.270319 0.68664,-0.266878 0.522,0.01917 -0.0773,0.134418 -0.0625,0.166737 0.0354,0.07713 0.0927,-0.08483 0.16849,-0.230592 0.16849,-0.323904 0,-0.09332 0.0557,-0.148842 0.1239,-0.123393 0.0681,0.02546 0.33627,-0.153243 0.59584,-0.397084 0.47446,-0.44573 0.47927,-0.868788 0.008,-0.687878 -0.13914,0.05338 -0.30221,0.01742 -0.36237,-0.07992 -0.0601,-0.09736 0.0462,-0.177006 0.23632,-0.177006 0.19015,0 0.50741,-0.131115 0.70501,-0.291361 0.1976,-0.160245 0.23434,-0.237356 0.0816,-0.171361 -0.18163,0.0785 -0.16563,0.02819 0.0463,-0.145498 0.39544,-0.324128 0.41375,-0.50231 0.0516,-0.50231 -0.21467,0 -0.26363,-0.241588 -0.23136,-1.141366 0.028,-0.782149 -0.0323,-1.165759 -0.19157,-1.218882 -0.29575,-0.0986 -0.11,-0.416077 0.24344,-0.416077 0.18152,0 0.2726,0.22168 0.28516,0.694076 0.0165,0.619442 0.0343,0.644324 0.16664,0.231362 0.24532,-0.766011 0.2157,-1.346971 -0.0632,-1.239947 -0.17859,0.06856 -0.25171,-0.09475 -0.26049,-0.581735 l -0.0121,-0.677007 0.25215,0.555265 c 0.15103,0.332599 0.25549,0.42887 0.26048,0.24007 0.0111,-0.421715 -0.37944,-1.258058 -0.58756,-1.258058 -0.0915,0 -0.10639,0.104114 -0.0332,0.231361 0.0733,0.127248 0.0696,0.174208 -0.008,0.104359 -0.0777,-0.06989 -0.34091,-0.05107 -0.58493,0.0417 -0.28022,0.106534 -0.44369,0.102182 -0.44369,-0.01183 0,-0.09928 0.12001,-0.180511 0.26671,-0.180511 0.14668,0 0.32692,-0.09744 0.40054,-0.216537 0.09,-0.145604 0.0329,-0.177825 -0.17417,-0.09836 -0.1694,0.06499 -0.308,0.05142 -0.308,-0.03022 0,-0.297126 0.23273,-0.36794 0.66684,-0.20289 0.24404,0.09278 0.44369,0.114838 0.44369,0.04904 0,-0.237446 -0.61867,-0.796615 -0.88139,-0.796615 -0.15726,0 -0.22652,-0.110025 -0.16695,-0.265247 0.0698,-0.18219 -0.0765,-0.3044 -0.46757,-0.390298 -0.41737,-0.09167 -0.50101,-0.167681 -0.31334,-0.284771 0.15539,-0.09694 -0.035,-0.119385 -0.48435,-0.05708 -0.55463,0.07688 -0.67071,0.0531 -0.46272,-0.09496 0.21105,-0.150206 0.0421,-0.198258 -0.70501,-0.200413 -0.69764,-0.0021 -0.94423,0.05933 -0.85022,0.21141 0.09,0.145667 0.009,0.182036 -0.25239,0.113613 -0.42181,-0.110304 -1.326,0.362288 -2.11893,1.107495 -0.45535,0.427954 -0.55347,0.945366 -0.12959,0.683393 0.0964,-0.0596 0.11945,-0.198754 0.0511,-0.309248 -0.0793,-0.128374 -0.0368,-0.146842 0.11813,-0.05114 0.1509,0.09326 0.19736,0.07705 0.12317,-0.04295 -0.0654,-0.105996 0.0258,-0.306269 0.20277,-0.445052 0.29127,-0.228339 0.29771,-0.22154 0.0679,0.07158 -0.13971,0.178146 -0.19199,0.323904 -0.11616,0.323904 0.0758,0 0.0262,0.134607 -0.11039,0.299133 -0.48093,0.579483 -0.66,1.516421 -0.64505,3.375186 0.008,1.032866 -0.0385,1.87803 -0.10393,1.878135 -0.0654,1.05e-4 -0.1745,0.145954 -0.24232,0.3241 -0.0976,0.256405 -0.0756,0.276608 0.10535,0.09694 0.16747,-0.166212 0.29424,-0.172536 0.47369,-0.02358 0.31856,0.26438 0.30907,0.4377 -0.0432,0.790026 -0.21408,0.214075 -0.23934,0.372313 -0.0982,0.614762 0.14897,0.255852 0.19193,0.266422 0.19855,0.04883 0.007,-0.246786 0.0284,-0.246786 0.18789,0 0.25074,0.387997 0.22842,0.602079 -0.0462,0.4438 -0.12724,-0.07332 -0.0294,0.08834 0.21735,0.359251 0.2468,0.270914 0.53341,0.492565 0.63692,0.492565 0.10351,0 0.0265,-0.12228 -0.17107,-0.271746 -0.34896,-0.263925 -0.34681,-0.271914 0.0745,-0.277629 0.28113,-0.0035 0.46783,0.124372 0.53058,0.364289 0.0859,0.328347 0.25246,0.370179 1.47429,0.370179 0.75763,0 1.33356,-0.07112 1.27984,-0.158027 z m -2.18935,-0.157972 c 0.23023,-0.04428 0.56339,-0.0426 0.74035,0.0035 0.17696,0.04631 -0.0114,0.08255 -0.41861,0.0805 -0.40719,-0.0021 -0.55198,-0.03994 -0.32174,-0.08423 z m 3.23689,-0.925157 c -0.66109,-0.127331 -0.48323,-0.424638 0.25402,-0.424638 0.575,0 0.63765,0.03953 0.44005,0.277628 -0.12672,0.152697 -0.24103,0.26629 -0.25401,0.252431 -0.013,-0.01385 -0.21101,-0.06128 -0.44006,-0.105421 z m -2.45242,-1.812098 c 0,-0.471865 -0.0838,-1.014594 -0.18632,-1.206067 -0.13755,-0.257021 -0.1181,-0.387038 0.0743,-0.496825 0.40174,-0.2292 0.42694,-0.9004 0.0495,-1.318043 -0.18707,-0.207003 -0.30961,-0.528319 -0.2723,-0.714042 0.0903,-0.449584 1.45519,-0.442554 2.40273,0.01238 1.13583,0.545317 1.74289,2.470462 0.95098,3.015772 -0.18433,0.126927 -0.41843,0.296083 -0.52022,0.375909 -0.1018,0.07982 -0.49306,0.136384 -0.86947,0.125695 -0.60562,-0.01721 -0.69082,0.03602 -0.74034,0.462714 -0.0392,0.337476 -0.18095,0.49991 -0.47243,0.541303 -0.38049,0.054 -0.41645,-0.01497 -0.41645,-0.798792 z m 0.80019,-0.670445 c 0.11979,-0.01203 0.33513,-0.0056 0.47853,0.0149 0.42717,0.06023 1.68269,-0.58375 1.68269,-0.863135 0,-0.878575 -1.39099,-2.091211 -2.39878,-2.091211 -0.48593,0 -0.49144,0.375048 -0.007,0.501632 0.2036,0.05324 0.37017,0.175299 0.37017,0.271228 0,0.09594 0.0883,0.119846 0.19627,0.05316 0.28431,-0.175711 1.28445,0.283079 1.28445,0.589207 0,0.282498 -0.72351,0.620771 -1.32774,0.620771 -0.31622,0 -0.35992,-0.08341 -0.26667,-0.50899 0.0968,-0.441589 0.0684,-0.423205 -0.21412,0.138818 -0.20116,0.400218 -0.29364,0.895399 -0.24194,1.295616 0.0461,0.356293 0.11586,0.502051 0.15519,0.323904 0.0393,-0.178147 0.16954,-0.333775 0.28932,-0.345835 z m 1.00056,-1.570601 c -0.0615,-0.06149 -0.22114,-0.06806 -0.35476,-0.01462 -0.14764,0.05911 -0.10378,0.102945 0.11183,0.111822 0.19512,0.0081 0.30444,-0.03567 0.24293,-0.09721 z m 1.34406,-1.274301 c 0.12579,-0.151577 0.30393,-0.229109 0.39586,-0.172298 0.23626,0.146016 0.0103,0.447891 -0.33522,0.447891 -0.23527,0 -0.24662,-0.05148 -0.0606,-0.275593 z m -2.30002,-1.629544 c 0.0695,-0.182533 0.173,-0.285261 0.22999,-0.228277 0.057,0.05701 1.2e-4,0.206339 -0.12637,0.331894 -0.1828,0.181434 -0.20406,0.160175 -0.10362,-0.103617 z m 11.88841,6.553469 c 0.0378,-0.113417 -0.10478,-0.206212 -0.31686,-0.206212 -0.21208,0 -0.3856,0.118475 -0.3856,0.263282 0,0.144799 -0.30148,0.362777 -0.66995,0.484379 -0.48284,0.159351 -0.59957,0.264611 -0.41793,0.376875 0.27049,0.16717 1.66735,-0.54932 1.79034,-0.918324 z m 0.61677,0.765507 c 0.23022,-0.293564 0.22368,-0.300112 -0.0699,-0.06989 -0.30831,0.241792 -0.40636,0.393789 -0.25403,0.393789 0.0384,0 0.1842,-0.145758 0.32391,-0.323904 z m -52.53305,-0.999882 c 0.59051,-0.193747 1.14696,-0.306955 1.23657,-0.251578 0.0896,0.0554 0.22318,0.0035 0.29684,-0.116013 0.0893,-0.144471 0.0531,-0.166793 -0.10834,-0.06695 -0.16514,0.102064 -0.19776,0.07769 -0.10243,-0.07656 0.0769,-0.124463 0.24751,-0.184995 0.37908,-0.134509 0.13156,0.05051 0.42713,-0.108241 0.65681,-0.352725 0.37595,-0.400182 0.3862,-0.456573 0.10283,-0.56531 -0.19238,-0.07382 -0.47305,0.02386 -0.72181,0.251151 -0.68803,0.628711 -1.66887,1.035091 -2.3996,0.994181 -0.48875,-0.02735 -0.73027,0.04785 -0.80851,0.251732 -0.098,0.255467 -0.13698,0.257433 -0.32104,0.01623 -0.17967,-0.235481 -0.25819,-0.238007 -0.55191,-0.01777 -0.18834,0.141231 -0.29093,0.340126 -0.22797,0.441994 0.144,0.233012 1.17874,0.08246 2.56948,-0.373845 z m 2.07288,-1.082366 c 0.18425,-0.203597 0.37664,-0.370173 0.42754,-0.370173 0.0509,0 -0.0582,0.166576 -0.24246,0.370173 -0.18425,0.203596 -0.37665,0.370178 -0.42755,0.370178 -0.0509,0 0.0582,-0.166582 0.24247,-0.370178 z m 50.8718,1.198211 c -0.0571,-0.14885 -0.19514,-0.214229 -0.30671,-0.145275 -0.14251,0.08808 -0.1364,0.14752 0.0205,0.199832 0.12287,0.04092 0.16837,0.163512 0.10111,0.272348 -0.0706,0.114179 -0.0354,0.144127 0.0833,0.07081 0.11307,-0.06989 0.15886,-0.248857 0.10174,-0.397713 z m -3.07661,0.170675 c -0.0615,-0.06149 -0.22114,-0.06806 -0.35475,-0.01462 -0.14765,0.05911 -0.1038,0.102945 0.11182,0.111822 0.19512,0.0081 0.30443,-0.03568 0.24293,-0.09721 z m -20.19211,-0.375132 c 0.63545,-0.301539 1.13256,-0.201715 0.61752,0.124008 -0.21507,0.136013 -0.18478,0.172781 0.14418,0.175028 0.24804,0.0014 0.41645,-0.109438 0.41645,-0.274803 0,-0.314314 0.28983,-0.372278 0.46271,-0.09254 0.0629,0.101797 0.25524,0.17923 0.42738,0.172081 0.25806,-0.01077 0.24976,-0.03778 -0.0473,-0.153999 -0.34614,-0.135453 -0.34467,-0.145058 0.0374,-0.244973 0.22039,-0.05765 0.43168,-0.0096 0.47396,0.107722 0.043,0.119273 0.25477,-0.01049 0.48504,-0.297279 0.22479,-0.279951 0.49887,-0.508996 0.60906,-0.508996 0.11018,0 0.0496,0.166582 -0.13467,0.370178 -0.18425,0.203597 -0.29603,0.370179 -0.2484,0.370179 0.0476,0 0.33123,-0.262756 0.63023,-0.58389 0.29899,-0.321141 0.4395,-0.52445 0.31226,-0.451802 -0.30722,0.175404 -0.2924,-0.09996 0.0398,-0.740316 0.23392,-0.450893 0.23521,-0.562457 0.009,-0.812013 -0.17894,-0.197719 -0.20569,-0.375859 -0.0845,-0.562708 0.0975,-0.150374 0.16694,-0.689858 0.15425,-1.198848 -0.0127,-0.508996 0.0274,-1.050376 0.089,-1.203072 0.0616,-0.152698 0.0297,-0.402568 -0.0711,-0.555266 -0.1628,-0.246785 -0.20341,-0.246785 -0.36541,0 -0.14801,0.225478 -0.18278,0.199406 -0.18508,-0.138818 -0.002,-0.229045 0.0804,-0.416447 0.18226,-0.416447 0.33282,0 0.19562,-0.345197 -0.41646,-1.047815 -0.33085,-0.379784 -0.49742,-0.627641 -0.37017,-0.550781 0.12724,0.07685 0.23136,0.0961 0.23136,0.04274 0,-0.0533 -0.17664,-0.191488 -0.39252,-0.307018 -0.27586,-0.147645 -0.35512,-0.149576 -0.26671,-0.0063 0.0692,0.111956 0.035,0.203554 -0.076,0.203554 -0.111,0 -0.24976,-0.124932 -0.30836,-0.277629 -0.15042,-0.392012 -1.28262,-0.347786 -2.24171,0.08756 -0.43264,0.196383 -0.78663,0.407695 -0.78663,0.469577 0,0.06191 0.0962,0.0531 0.21369,-0.01959 0.13346,-0.08248 0.1634,-0.05072 0.0798,0.08465 -0.0737,0.119182 -0.20442,0.173138 -0.29056,0.119903 -0.20571,-0.127143 -1.32746,0.819602 -1.2053,1.017266 0.0518,0.08383 -0.0104,0.194593 -0.13832,0.24615 -0.12789,0.05156 -0.0243,0.100727 0.2302,0.109269 l 0.46273,0.01553 -0.55527,0.455146 c -0.59863,0.490697 -1.0079,0.624702 -0.67207,0.22007 0.25918,-0.312298 0.0451,-0.55467 -0.2635,-0.298468 -0.25382,0.210647 -0.13759,0.972978 0.12372,0.811488 0.0902,-0.05576 0.16404,-0.01315 0.16404,0.09462 0,0.261869 -0.42765,0.249585 -0.69726,-0.02001 -0.16466,-0.164652 -0.24421,-0.142644 -0.33446,0.09255 -0.0651,0.169717 -0.23935,0.308576 -0.38717,0.308576 -0.15601,0 -0.21335,-0.08963 -0.13668,-0.213682 0.0802,-0.129781 0.0509,-0.163548 -0.0746,-0.08599 -0.1383,0.08547 -0.15083,0.274439 -0.0378,0.571522 0.0951,0.250018 0.0981,0.469431 0.007,0.502442 -0.23478,0.08512 -0.30371,2.279669 -0.0716,2.279669 0.22489,0 1.54745,1.13209 1.54745,1.324591 0,0.07305 -0.24987,-0.106562 -0.55526,-0.399147 -0.30539,-0.292593 -0.55527,-0.491089 -0.55527,-0.441113 0,0.04994 0.30403,0.377894 0.67561,0.728704 0.37158,0.350815 0.60779,0.519581 0.5249,0.375033 -0.11767,-0.205219 -0.0731,-0.229458 0.20357,-0.110612 0.19484,0.08371 0.62496,0.190269 0.9558,0.236789 0.61354,0.08628 0.78635,0.30885 0.37018,0.476776 -0.13166,0.05316 -0.0839,0.09966 0.11085,0.107969 0.18821,0.0081 0.62845,-0.121225 0.97832,-0.287249 z m -0.33529,-1.373 c -0.25518,-0.147387 -0.29137,-0.368164 -0.20353,-1.241897 0.0588,-0.584451 0.16252,-1.104284 0.23057,-1.155182 0.068,-0.05093 0.26881,-0.460869 0.44614,-0.911048 0.41427,-1.051691 1.00878,-1.672951 1.60478,-1.676988 0.68117,-0.0049 0.91618,0.326898 0.91618,1.292419 0,0.468277 0.0899,0.941338 0.19985,1.051258 0.20467,0.204666 -0.26758,1.439247 -0.81914,2.141515 -0.37641,0.479231 -0.89816,0.420826 -0.82678,-0.09254 0.0425,-0.30515 -0.0457,-0.431257 -0.32995,-0.471845 -0.29396,-0.04197 -0.45079,0.101834 -0.64781,0.594083 -0.21211,0.529963 -0.31706,0.616497 -0.57031,0.470228 z m 2.55504,-1.624214 c 0.25653,-0.679616 0.0991,-2.553359 -0.23799,-2.833142 -0.20824,-0.172823 -0.37383,-0.109815 -0.81031,0.308353 -0.30171,0.28906 -0.54856,0.617301 -0.54856,0.729431 0,0.11213 -0.16389,0.525311 -0.36419,0.91819 -0.2003,0.392879 -0.32032,0.78529 -0.2667,0.872034 0.0535,0.08674 0.46735,0.157713 0.91944,0.157713 0.45208,0 0.82198,0.08329 0.82198,0.185085 0,0.374509 0.29477,0.169843 0.48633,-0.337664 z M 170.50822,77.8778 c 0,-0.409487 0.58188,-1.320695 0.79748,-1.248831 0.12127,0.04043 0.22049,0.358077 0.22049,0.705885 0,0.552284 -0.0645,0.639804 -0.50898,0.690948 -0.28622,0.03295 -0.50899,-0.03183 -0.50899,-0.148002 z m -2.31362,-3.519783 c 0.0629,-0.101797 0.25524,-0.183813 0.42738,-0.182253 0.26973,0.0021 0.27462,0.02763 0.0353,0.182253 -0.36247,0.23425 -0.60749,0.23425 -0.46272,0 z m 21.07736,7.31855 c -0.11512,-0.299993 0.91384,-1.023695 1.45715,-1.024856 0.17814,-3.71e-4 0.3239,-0.07507 0.3239,-0.165975 0,-0.200496 -0.45701,-0.389983 -0.94058,-0.389983 -0.19527,0 -0.35504,-0.08877 -0.35504,-0.197251 0,-0.441987 0.40818,-0.913447 0.79314,-0.916112 0.62819,-0.0042 1.01257,-0.301462 0.74115,-0.572887 -0.15731,-0.157299 -0.44847,-0.17285 -1.0106,-0.054 -0.71109,0.150368 -0.81182,0.240623 -1.01261,0.907333 -0.27156,0.901639 -0.31947,2.683782 -0.0721,2.683782 0.0986,0 0.13263,-0.121532 0.0756,-0.270074 z m -57.6323,-0.470283 c 0,-0.101799 -0.24986,-0.185087 -0.55527,-0.185087 -0.30539,0 -0.55526,0.08329 -0.55526,0.185087 0,0.101797 0.24987,0.185092 0.55526,0.185092 0.30541,0 0.55527,-0.08329 0.55527,-0.185092 z m 53.25097,-0.971712 c -0.0442,-0.229046 -0.0802,-0.04162 -0.0802,0.416447 0,0.458097 0.0361,0.645499 0.0802,0.416454 0.0442,-0.229053 0.0442,-0.603856 0,-0.832901 z m -44.30385,0.361301 c 0.53459,-0.24475 1.29211,-0.726066 1.68336,-1.069586 0.59728,-0.524415 0.69119,-0.561015 0.58556,-0.228227 -0.0692,0.218 -0.0391,0.449935 0.0668,0.515413 0.18971,0.117244 0.26943,-0.125451 0.20216,-0.615462 -0.0189,-0.13746 0.0451,-0.200867 0.14213,-0.140895 0.21798,0.134719 0.40101,-0.505325 0.39105,-1.367509 -0.009,-0.799225 -1.1035,-2.485657 -2.00867,-3.095647 -0.87791,-0.59162 -2.83048,-1.161387 -3.98007,-1.161387 -0.53069,0 -1.40249,0.129955 -1.93733,0.288787 -0.8432,0.250403 -0.9409,0.3268 -0.73509,0.574775 0.19308,0.232649 0.44588,0.258546 1.35529,0.13886 2.1719,-0.285841 3.5559,-0.01721 3.37983,0.656119 -0.0785,0.29998 -0.0415,0.307807 0.39193,0.08295 0.26321,-0.136558 0.52339,-0.185842 0.57817,-0.109521 0.12468,0.173676 0.40127,0.164226 0.69732,-0.02385 0.12515,-0.0795 0.39583,-0.05449 0.60154,0.05562 0.53909,0.288506 0.46075,0.380315 -0.21004,0.246155 -0.43433,-0.08686 -0.54818,-0.05876 -0.44415,0.10955 0.0943,0.152613 0.0284,0.207254 -0.20258,0.167709 -0.18836,-0.03225 -0.38412,-0.109745 -0.43502,-0.1722 -0.0509,-0.06247 -0.25912,-0.0475 -0.46272,0.0333 -0.3304,0.131039 -0.33404,0.148212 -0.0338,0.159824 0.24989,0.0097 0.30627,0.107892 0.21927,0.382023 -0.0902,0.28426 -0.05,0.343267 0.17497,0.256922 0.16065,-0.06163 0.41596,-0.0093 0.56736,0.11637 0.22441,0.18624 0.27528,0.172963 0.27528,-0.07184 0,-0.165163 0.0833,-0.300294 0.18509,-0.300294 0.1018,0 0.16427,-0.07497 0.13881,-0.166584 -0.0661,-0.238104 0.0825,-0.275796 0.52882,-0.13413 0.6214,0.197222 0.36674,0.977713 -0.41072,1.258847 -0.46847,0.169402 -0.62709,0.335866 -0.62709,0.658105 0,0.237245 -0.12493,0.479294 -0.27763,0.537889 -0.1527,0.05862 -0.27764,0.249688 -0.27764,0.424645 0,0.43183 -0.66167,1.004193 -1.66579,1.440926 -0.45809,0.199245 -0.93006,0.480064 -1.0488,0.624045 -0.18024,0.218531 -0.0642,0.270997 0.70223,0.317551 0.66617,0.04043 1.18489,-0.06638 1.89015,-0.389234 z m 20.82897,-0.06051 c 0.31812,-0.06359 0.5784,-0.226065 0.5784,-0.360979 0,-0.134915 0.14576,-0.3302 0.3239,-0.433957 0.24185,-0.140867 -0.0161,-0.190081 -1.01798,-0.194286 -1.20079,-0.0049 -1.34189,-0.04323 -1.34189,-0.363204 0,-0.439322 0.78543,-1.019855 1.81425,-1.340939 0.4242,-0.132396 0.81694,-0.359701 0.87274,-0.505129 0.3663,-0.954545 -1.55631,-0.349871 -2.53996,0.79884 -0.64363,0.751634 -0.67427,0.842988 -0.49747,1.48329 0.24032,0.870362 0.74898,1.128166 1.80801,0.916364 z m 23.10052,-0.289199 c -0.0591,-0.147653 -0.10294,-0.103799 -0.11182,0.111822 -0.008,0.195111 0.0357,0.304429 0.0972,0.242932 0.0615,-0.06149 0.068,-0.221148 0.0146,-0.354754 z m 9.31307,0.225597 c 0,-0.0986 -0.12494,-0.131333 -0.27764,-0.07274 -0.15269,0.05862 -0.27763,0.139273 -0.27763,0.17928 0,0.04001 0.12494,0.07274 0.27763,0.07274 0.1527,0 0.27764,-0.08067 0.27764,-0.17928 z m -61.90549,-0.735545 c -0.0456,-0.0737 -0.32811,-0.09798 -0.62793,-0.054 -0.4351,0.06386 -0.57088,-0.0014 -0.67272,-0.322008 -0.12247,-0.38587 -0.14205,-0.388934 -0.48754,-0.07627 -0.19796,0.179154 -0.3163,0.439434 -0.26298,0.578392 0.0533,0.138958 0.0146,0.201771 -0.086,0.139573 -0.10063,-0.06219 -0.18296,-0.02491 -0.18296,0.08293 0,0.24044 0.0413,0.241511 0.63352,0.01637 0.34626,-0.131647 0.53437,-0.11348 0.70387,0.068 0.19288,0.206478 0.30065,0.202211 0.64844,-0.02567 0.22942,-0.150319 0.37987,-0.333601 0.33432,-0.407291 z m 0.89956,0.309388 c 0.0711,0.07104 0.0549,-0.07172 -0.0359,-0.317252 -0.25428,-0.68738 -0.52971,-0.640812 -0.51405,0.08692 0.0112,0.521589 0.0553,0.598217 0.21747,0.377748 0.11186,-0.152116 0.26151,-0.218454 0.33255,-0.147415 z m 24.14255,-0.736455 c -0.0174,-0.902491 -0.0542,-1.042667 -0.16753,-0.637636 -0.12984,0.464051 -0.0366,1.794442 0.12575,1.794442 0.0353,0 0.054,-0.520561 0.0417,-1.156806 z m 19.09206,0.174167 c -0.002,-0.329683 -0.0363,-0.3536 -0.18225,-0.127892 -0.23566,0.364646 -0.23566,0.793447 0,0.647809 0.1018,-0.06289 0.18381,-0.296874 0.18225,-0.519917 z m 7.63094,0.05722 c 0.0448,-0.305394 0.0126,-0.555265 -0.0716,-0.555265 -0.0842,0 -0.15303,0.249871 -0.15303,0.555265 0,0.305401 0.0322,0.555265 0.0716,0.555265 0.0393,0 0.10822,-0.249864 0.15304,-0.555265 z m 1.5638,-0.04624 c -0.0513,-0.127247 -0.0934,-0.02316 -0.0934,0.231362 0,0.254495 0.0421,0.358608 0.0934,0.23136 0.0514,-0.127254 0.0514,-0.335474 0,-0.462722 z m -51.52783,-0.0876 c 0.078,-0.04225 0.095,-0.15262 0.0377,-0.245302 -0.11013,-0.178196 -0.82733,0.184064 -0.82733,0.417887 0,0.12091 0.41518,0.03015 0.78964,-0.172585 z m 2.11128,-0.270424 c 0.11943,-0.09498 0.61916,-0.273446 1.11053,-0.39658 0.69786,-0.174886 0.88079,-0.297041 0.83584,-0.558133 -0.0316,-0.183833 0.0516,-0.473823 0.18509,-0.644422 0.20818,-0.266128 0.20321,-0.280944 -0.035,-0.10433 -0.36086,0.267535 -1.22181,0.501442 -2.03598,0.553138 -0.3563,0.02259 -1.55408,0.186668 -2.66174,0.364541 -1.55656,0.249962 -2.09194,0.274698 -2.35738,0.108941 -0.53891,-0.336559 -0.55631,-0.25409 -0.0526,0.249555 0.38045,0.380456 0.53091,0.428242 0.83535,0.265311 0.20422,-0.109298 0.61629,-0.144912 0.91571,-0.07915 0.3752,0.08241 0.54441,0.04792 0.54441,-0.111067 0,-0.126856 0.0526,-0.178048 0.11689,-0.113768 0.0643,0.06429 0.26581,0.03715 0.44784,-0.06023 0.26771,-0.14328 0.37475,-0.07823 0.56003,0.340358 0.194,0.438273 0.3167,0.505325 0.8015,0.438021 0.31484,-0.04373 0.67015,-0.157188 0.78958,-0.252173 z m 22.22373,-0.06919 c -0.0669,-0.350193 -0.0244,-0.44657 0.16351,-0.370179 0.13971,0.05681 0.37895,0.153844 0.53165,0.215635 0.16435,0.06653 0.28078,0.0099 0.28534,-0.138817 0.0139,-0.452117 1.20887,-1.621927 2.04381,-2.000732 0.99962,-0.453509 1.62995,-0.477454 1.92559,-0.07315 0.20448,0.279637 0.25825,0.271144 0.62869,-0.09929 0.22281,-0.222805 0.47591,-0.361323 0.56246,-0.307835 0.0866,0.05351 0.27091,-0.04274 0.40969,-0.213866 0.17355,-0.213984 0.1801,-0.267723 0.0209,-0.172129 -0.16992,0.102084 -0.23135,-0.06052 -0.23135,-0.612279 0,-0.413201 0.0807,-0.751278 0.17928,-0.751278 0.0986,0 0.13133,-0.124932 0.0728,-0.277629 -0.0588,-0.153123 -0.006,-0.277635 0.11885,-0.277635 0.12847,0 0.0735,-0.139281 -0.12774,-0.323905 -0.19422,-0.178146 -0.22427,-0.244632 -0.0668,-0.147744 0.22535,0.138629 0.24153,0.125351 0.076,-0.06233 -0.11571,-0.131165 -0.69875,-0.272494 -1.29562,-0.314061 -0.59688,-0.04156 -1.40876,-0.123331 -1.8042,-0.181693 -0.65838,-0.09717 -0.71054,-0.07384 -0.61887,0.276719 0.11087,0.423946 0.10359,0.43027 -0.31175,0.270892 -0.16043,-0.06156 -0.24075,-0.207324 -0.17848,-0.323904 0.0623,-0.116579 -0.11202,0.03791 -0.38732,0.343296 -0.407,0.451494 -0.44523,0.566534 -0.20456,0.615545 0.16278,0.03316 0.25064,0.133634 0.19523,0.223281 -0.0554,0.08965 -0.223,0.116076 -0.37243,0.05876 -0.14945,-0.05736 -0.27171,-0.01588 -0.27171,0.09221 0,0.108059 -0.21699,0.41346 -0.48219,0.678665 -0.33332,0.333313 -0.45607,0.61877 -0.39761,0.924577 0.0511,0.267499 -0.0151,0.480616 -0.16734,0.539063 -0.13856,0.05316 -0.24128,0.161455 -0.22828,0.240637 0.0626,0.38128 -0.0739,1.583255 -0.14779,1.300764 -0.0466,-0.178146 -0.16182,-0.323903 -0.25616,-0.323903 -0.0943,0 -0.17982,-0.187402 -0.18997,-0.416447 -0.0177,-0.399526 -0.0245,-0.397644 -0.16663,0.04624 -0.0815,0.254495 -0.14664,0.670942 -0.14474,0.925437 0.002,0.410556 0.0184,0.400127 0.13584,-0.09254 l 0.1324,-0.555266 0.14764,0.740352 c 0.1591,0.797783 0.24761,1.017987 0.40916,1.017987 0.0567,0 0.0625,-0.213054 0.0127,-0.47346 z m -8.09653,-0.103652 c 0,-0.101798 -0.0833,-0.133613 -0.18509,-0.07069 -0.1018,0.06289 -0.18509,0.197678 -0.18509,0.299483 0,0.101797 0.0833,0.133613 0.18509,0.0707 0.1018,-0.06289 0.18509,-0.197678 0.18509,-0.299483 z m 15.36233,-0.163239 c 0,-0.101798 -0.0833,-0.185086 -0.18509,-0.185086 -0.1018,0 -0.18508,0.08329 -0.18508,0.185086 0,0.101798 0.0833,0.185086 0.18508,0.185086 0.1018,0 0.18509,-0.08329 0.18509,-0.185086 z m 19.7458,-0.219791 c -0.0591,-0.147653 -0.10295,-0.103798 -0.11182,0.111823 -0.008,0.195111 0.0357,0.304428 0.0972,0.242932 0.0615,-0.06149 0.0681,-0.221148 0.0146,-0.354755 z m -9.46113,-1.402877 c -0.1975,-0.197503 -0.2373,0.04994 -0.12701,0.789767 l 0.11036,0.740358 0.0607,-0.712649 c 0.0334,-0.391963 0.0135,-0.759819 -0.0441,-0.817476 z m -10.71736,0.650956 c -0.0513,-0.127248 -0.0933,-0.02316 -0.0933,0.231361 0,0.254495 0.0421,0.358608 0.0933,0.231361 0.0514,-0.127254 0.0514,-0.335475 0,-0.462722 z m -1.10667,0.01154 c -0.0591,-0.147646 -0.10294,-0.103792 -0.11182,0.111829 -0.008,0.195111 0.0357,0.304429 0.0972,0.242925 0.0615,-0.06149 0.0681,-0.221141 0.0146,-0.354754 z m -29.05035,0.107968 c -0.0615,-0.06149 -0.22114,-0.06806 -0.35474,-0.01462 -0.14766,0.05911 -0.1038,0.102939 0.11182,0.111823 0.19511,0.0081 0.30442,-0.03575 0.24292,-0.09722 z m 4.07195,-0.185086 c -0.0614,-0.06149 -0.22115,-0.06806 -0.35475,-0.01462 -0.14765,0.05911 -0.1038,0.102945 0.11182,0.111822 0.19512,0.0081 0.30444,-0.03567 0.24293,-0.09721 z m 1.70427,-0.195775 c 0.0445,-0.03854 0.0933,-0.238671 0.10849,-0.444688 0.0183,-0.247989 -0.0584,-0.341574 -0.22682,-0.276943 -0.14869,0.05708 -0.3157,-0.06807 -0.4019,-0.301113 -0.10965,-0.296398 -0.18575,-0.33686 -0.29652,-0.157636 -0.0931,0.150675 -0.0351,0.304835 0.15461,0.411019 0.45831,0.256481 0.36827,0.49262 -0.29792,0.781288 l -0.60153,0.260658 0.74035,-0.101231 c 0.40719,-0.05568 0.77675,-0.132788 0.82124,-0.171354 z M 136.74049,77.4179 c 0.19761,-0.149459 0.26008,-0.274398 0.13884,-0.277637 -0.12124,-0.0035 -0.2764,0.08466 -0.34479,0.195328 -0.0684,0.110668 -0.28145,0.160133 -0.47346,0.109919 -0.19201,-0.05023 -0.39575,-0.01581 -0.45276,0.07643 -0.16946,0.274201 0.74294,0.19036 1.13217,-0.104037 z m 38.33241,-0.329795 c -0.0514,-0.127247 -0.0934,-0.02316 -0.0934,0.231362 0,0.254501 0.0421,0.358608 0.0934,0.23136 0.0513,-0.127247 0.0513,-0.335467 0,-0.462722 z m -9.87697,0.108458 c -0.0858,-0.223638 -0.0511,-0.266499 0.12696,-0.156495 0.16924,0.104603 0.20116,0.08036 0.1031,-0.07831 -0.0947,-0.153209 -0.20373,-0.168115 -0.32712,-0.0447 -0.1018,0.101798 -0.12912,0.275635 -0.0607,0.386303 0.19006,0.307528 0.29065,0.239456 0.15779,-0.106778 z m -26.15875,-0.443589 c -0.10565,-0.197419 -0.13364,-0.358945 -0.0622,-0.358945 0.0715,0 0.0815,-0.0484 0.0224,-0.107541 -0.20498,-0.204988 -0.86771,0.29332 -0.76077,0.572019 0.0578,0.150564 0.17385,0.231222 0.25796,0.179245 0.0841,-0.05197 0.20606,-0.0085 0.27102,0.09663 0.21746,0.351858 0.47244,-0.0063 0.27162,-0.381406 z m 36.96686,-0.309151 c -0.047,-0.180084 -0.0884,-0.07756 -0.0922,0.227835 -0.003,0.305394 0.0346,0.45274 0.0853,0.32743 0.0507,-0.12531 0.0538,-0.375181 0.007,-0.555265 z m -17.90509,-0.0498 c 0.0667,-0.05092 -0.0291,-0.238301 -0.21284,-0.416455 -0.36117,-0.350171 -0.41681,-0.189458 -0.20656,0.59677 0.0821,0.307213 0.15137,0.368136 0.2103,0.185086 0.0483,-0.150074 0.14242,-0.314502 0.2091,-0.365401 z m 16.42437,-0.135299 c -0.0469,-0.180085 -0.0884,-0.07755 -0.0922,0.227842 -0.003,0.305394 0.0346,0.452732 0.0853,0.327423 0.0507,-0.12531 0.0538,-0.375175 0.007,-0.555265 z m 19.46964,0.181566 c -0.0132,-0.313151 -0.054,-0.384365 -0.10612,-0.185085 -0.0465,0.178146 -0.16674,0.323904 -0.26709,0.323904 -0.10034,0 -0.13096,0.08329 -0.068,0.185086 0.22085,0.357342 0.4625,0.179951 0.44125,-0.323905 z m -48.88152,-0.43592 c 0.54709,-0.15737 0.71938,-0.277636 0.55526,-0.387605 -0.14398,-0.09647 -0.0187,-0.114753 0.3173,-0.04631 0.37282,0.07596 0.47411,0.05582 0.30827,-0.06121 -0.32852,-0.231921 0.4178,-0.437979 1.07432,-0.296629 0.29955,0.0645 0.38535,0.04176 0.23809,-0.06317 -0.15527,-0.110612 0.19611,-0.301302 1.07952,-0.585821 0.72035,-0.232005 1.35839,-0.373166 1.41786,-0.313698 0.0595,0.05946 -0.002,0.108136 -0.13865,0.108136 -0.13573,0 -0.19937,0.04743 -0.14142,0.105365 0.058,0.05792 0.25924,0.02602 0.4473,-0.07095 0.18806,-0.09697 0.57256,-0.284247 0.85445,-0.416167 0.35433,-0.165821 0.44168,-0.283631 0.28299,-0.381708 -0.25914,-0.160161 -0.23628,-0.187926 0.40756,-0.495069 0.81554,-0.389046 -0.0397,-0.158301 -4.32142,1.165983 -2.30398,0.712586 -4.18987,1.383073 -4.19085,1.489957 -0.002,0.319511 0.4231,0.64545 0.72986,0.558364 0.15748,-0.0447 0.64328,-0.183967 1.07956,-0.309451 z m 5.59232,-2.089244 c 0,-0.04002 0.12926,-0.122343 0.28725,-0.182966 0.16471,-0.06324 0.239,-0.03218 0.17416,0.07274 -0.1087,0.175873 -0.46141,0.260134 -0.46141,0.110228 z m -16.00842,1.556232 c -0.0698,-0.113061 0.10171,-0.139419 0.45181,-0.0694 0.69461,0.138924 0.73707,-0.12952 0.0695,-0.439489 -0.60611,-0.281428 -1.13227,0.01399 -0.78029,0.438119 0.24178,0.291333 0.42648,0.341805 0.25897,0.07078 z m 4.28809,-0.114005 c 0.1513,-0.394299 -0.24901,-0.622834 -1.09703,-0.626297 -0.98197,-0.0042 -0.86212,0.298266 0.18509,0.466814 0.76897,0.123771 0.82116,0.158895 0.41644,0.280203 -0.44882,0.134524 -0.45004,0.139246 -0.0404,0.15714 0.23225,0.01015 0.47343,-0.114894 0.53597,-0.27786 z m -2.53147,-0.06296 c 0,-0.09579 -0.0833,-0.225639 -0.18509,-0.288556 -0.1018,-0.06289 -0.18509,0.01546 -0.18509,0.174167 0,0.158705 0.0833,0.288555 0.18509,0.288555 0.1018,0 0.18509,-0.07838 0.18509,-0.174166 z m 0.49357,-0.288556 c 0,-0.152696 -0.0694,-0.277629 -0.15424,-0.277629 -0.0848,0 -0.15425,0.124933 -0.15425,0.277629 0,0.152697 0.0694,0.277636 0.15425,0.277636 0.0848,0 0.15424,-0.124939 0.15424,-0.277636 z m 46.33378,-0.925444 c -0.12674,-0.152697 -0.31943,-0.277629 -0.42822,-0.277629 -0.10879,0 -0.0361,0.122288 0.16148,0.271746 0.46429,0.351173 0.55495,0.353173 0.26674,0.0056 z m -55.39913,-0.26815 c 0.16986,-0.198377 0.37184,-0.321756 0.44885,-0.274159 0.21831,0.134921 1.14263,-1.18096 1.03202,-1.469216 -0.0542,-0.141329 -7e-4,-0.362623 0.11829,-0.49176 0.16798,-0.181854 0.16191,-0.20361 -0.0269,-0.09648 -0.16038,0.09099 -0.27861,0.0056 -0.34549,-0.25048 -0.0559,-0.213837 -0.24182,-0.388794 -0.41309,-0.388794 -0.24523,0 -0.2958,0.133858 -0.23793,0.629676 0.0537,0.460323 -0.0309,0.734111 -0.31479,1.017987 -0.3862,0.386198 -1.25446,0.556496 -1.03612,0.203218 0.0629,-0.101798 0.27044,-0.185086 0.46117,-0.185086 0.59434,0 0.88996,-1.896379 0.34904,-2.239003 -0.1586,-0.100455 -0.1737,-0.162547 -0.0399,-0.164317 0.11823,-0.0014 0.19389,-0.14859 0.16813,-0.326737 -0.03,-0.207695 -0.27318,-0.364967 -0.6777,-0.438356 -0.56553,-0.102596 -0.57815,-0.116972 -0.12187,-0.138811 0.34611,-0.01658 0.50899,-0.125065 0.50899,-0.339022 0,-0.244722 -0.0494,-0.265289 -0.2221,-0.09254 -0.12216,0.122162 -0.60107,0.225989 -1.06425,0.230725 l -0.84216,0.0086 0.92544,0.478741 c 1.34766,0.697168 1.49839,1.007599 0.6918,1.424703 -0.43008,0.222407 -0.62333,0.22587 -1.21685,0.02183 -0.38806,-0.133411 -0.74795,-0.284954 -0.79976,-0.336763 -0.0518,-0.05183 -0.25383,0.06541 -0.44895,0.260553 -0.47662,0.47663 -0.64221,0.447829 -0.88681,-0.154235 -0.21885,-0.538693 -0.19469,-3.87611 0.0307,-4.240805 0.23418,-0.378895 2.42903,-0.159622 3.20546,0.320238 l 0.68717,0.424695 -0.1144,-0.572061 c -0.0816,-0.408185 -0.0377,-0.601477 0.15316,-0.674747 0.2015,-0.07732 0.22531,-0.213901 0.0964,-0.552978 -0.0942,-0.247661 -0.13696,-0.484534 -0.0951,-0.526388 0.0418,-0.04184 0.1229,-0.370556 0.1801,-0.730459 0.15467,-0.973237 -0.30704,-1.427844 -1.48289,-1.460086 -1.4247,-0.03904 -1.61003,-0.01029 -1.52747,0.237432 0.0421,0.126451 -0.0873,0.313852 -0.28771,0.416448 -0.20039,0.102595 -0.3737,0.267045 -0.38512,0.365443 -0.0114,0.0984 -0.27064,0.675502 -0.57603,1.282464 -0.54759,1.088292 -1.01799,1.531993 -1.01799,0.960205 0,-0.161182 0.11757,-0.293062 0.26125,-0.293062 0.14446,0 0.23893,-0.144812 0.21131,-0.323903 -0.0275,-0.178147 0.0424,-0.385093 0.15519,-0.459882 0.14315,-0.09489 0.13523,-0.136839 -0.0262,-0.138818 -0.12725,-0.0014 -0.23137,-0.08351 -0.23137,-0.182113 0,-0.09861 0.114,-0.135538 0.25331,-0.08208 0.15573,0.05974 0.29478,-0.06722 0.36097,-0.32971 0.0993,-0.393893 0.0883,-0.401106 -0.14206,-0.09321 -0.18343,0.245121 -0.27116,0.269689 -0.33043,0.09254 -0.11328,-0.338559 -0.71603,1.548852 -0.7835,2.453359 -0.0307,0.411669 -0.1071,0.799764 -0.16977,0.862435 -0.0627,0.06268 -0.10148,0.53735 -0.0862,1.054826 0.0158,0.535488 0.061,0.721561 0.10483,0.431871 0.0424,-0.279943 0.14099,-0.508996 0.21906,-0.508996 0.15537,0 0.20523,-0.287325 0.23289,-1.341892 0.01,-0.381742 0.10115,-0.694075 0.20252,-0.694075 0.17328,0 0.0996,1.472139 -0.12875,2.571546 -0.0505,0.243673 -0.0342,0.535182 0.0363,0.647808 0.13743,0.219141 0.15721,0.319078 0.2054,1.037673 0.0252,0.375551 0.0663,0.410424 0.21889,0.185093 0.14007,-0.206982 0.15843,-0.150613 0.0721,0.221525 -0.29227,1.260261 0.85605,2.75233 2.0456,2.657941 0.53292,-0.04225 0.61445,-0.0056 0.44377,0.200161 -0.17179,0.206989 -0.0396,0.251963 0.7408,0.251963 0.71255,0 1.02709,-0.09013 1.25876,-0.360701 z m -3.27759,-0.476671 c -0.34024,-0.409976 -0.14663,-0.457104 0.23508,-0.05722 0.17815,0.186632 0.2508,0.339329 0.16147,0.339329 -0.0893,0 -0.26777,-0.126947 -0.39655,-0.282106 z m 3.27158,-0.188982 c 0.0564,-0.146926 0.17707,-0.221057 0.26821,-0.164737 0.22953,0.141854 0.2084,0.209654 -0.10252,0.328962 -0.1789,0.06863 -0.23408,0.01399 -0.16569,-0.164225 z m -4.19316,-1.101884 c -0.35609,-0.665373 -0.13535,-0.741876 0.25141,-0.08713 0.17855,0.30226 0.25071,0.549571 0.16036,0.549571 -0.0904,0 -0.27565,-0.208101 -0.41177,-0.462441 z m 3.48183,-6.697353 c 0.13361,-0.05344 0.29324,-0.04687 0.35475,0.01462 0.0615,0.06149 -0.0478,0.105246 -0.24293,0.09721 -0.21562,-0.0089 -0.25947,-0.05275 -0.11182,-0.111823 z m -0.7982,-1.354273 c -0.13529,-0.218916 0.0458,-0.218916 0.55527,0 0.35689,0.153362 0.35563,0.159539 -0.0353,0.172081 -0.22304,0.0072 -0.457,-0.07029 -0.51992,-0.172081 z m 0.92545,-0.555265 c -0.0629,-0.101798 -0.0311,-0.185086 0.0707,-0.185086 0.1018,0 0.23657,0.08329 0.29948,0.185086 0.0629,0.101798 0.0311,0.185093 -0.0707,0.185093 -0.10181,0 -0.23657,-0.08329 -0.29948,-0.185093 z m 32.18345,10.44788 c 0.0632,-0.164715 0.0322,-0.239007 -0.0727,-0.174166 -0.10064,0.06219 -0.18298,0.191459 -0.18298,0.287248 0,0.266233 0.13267,0.20757 0.25572,-0.113082 z m 14.55134,-0.152815 c 0,-0.0384 -0.14576,-0.184191 -0.3239,-0.323905 -0.29356,-0.23022 -0.3001,-0.22368 -0.0698,0.06989 0.2418,0.308312 0.39379,0.40636 0.39379,0.25402 z m -50.15893,-0.185087 c 0,-0.0384 -0.14576,-0.18419 -0.3239,-0.323903 -0.29356,-0.230228 -0.30011,-0.22368 -0.0699,0.06989 0.2418,0.30831 0.39379,0.406352 0.39379,0.254019 z m 28.41596,-0.264547 c -0.057,-0.05701 -0.20634,-1.19e-4 -0.33188,0.126373 -0.18144,0.182798 -0.16018,0.204057 0.1036,0.10361 0.18254,-0.06954 0.28527,-0.172998 0.22828,-0.229983 z m 2.67888,-0.331536 c -0.36492,-0.222931 -0.38447,-0.2651 -0.0925,-0.199532 0.2036,0.04575 0.53676,0.14545 0.74035,0.221589 l 0.37018,0.138447 -0.37018,-0.312117 c -0.36477,-0.307562 -0.36376,-0.310339 0.0694,-0.190157 0.2738,0.07595 0.39646,0.05211 0.32519,-0.06324 -0.1672,-0.270542 0.75535,-0.451187 1.17024,-0.229143 0.53163,0.284519 0.68181,0.228199 0.27511,-0.103176 -0.39018,-0.317916 -0.38673,-0.317609 0.6587,0.05778 0.16277,0.05848 0.12449,-0.03176 -0.0925,-0.217958 -0.36327,-0.311718 -0.29191,-0.31206 0.55526,-0.0028 l 0.37019,0.135202 -0.37019,-0.312117 c -0.36477,-0.307562 -0.36376,-0.31034 0.0694,-0.190158 0.31879,0.08843 0.40145,0.06016 0.30073,-0.102791 -0.0997,-0.161378 -0.028,-0.189549 0.25446,-0.0999 0.22829,0.07245 0.39335,0.04435 0.39335,-0.06688 0,-0.105464 0.12493,-0.143813 0.27763,-0.08521 0.15283,0.05862 0.27764,0.0056 0.27764,-0.11816 0,-0.126268 0.12161,-0.175482 0.27762,-0.112348 0.85734,0.346934 0.93872,0.357588 0.57705,0.07555 -0.32666,-0.254733 -0.3112,-0.271683 0.24765,-0.271683 0.32782,0 0.65118,-0.08255 0.71857,-0.183435 0.0674,-0.100896 0.47586,-0.172732 0.9077,-0.159644 0.43184,0.01308 0.70306,-0.02694 0.6027,-0.08898 -0.29106,-0.179882 2.36423,-0.961855 2.82571,-0.832167 0.26361,0.07409 0.32912,0.05716 0.18062,-0.04666 -0.31119,-0.21753 1.64141,-0.838441 2.09242,-0.665373 0.23889,0.09167 0.28956,0.06142 0.18375,-0.109801 -0.10947,-0.177111 -0.0416,-0.203225 0.27045,-0.104169 0.30254,0.09603 0.37852,0.0707 0.27763,-0.09254 -0.10089,-0.163246 -0.0249,-0.18857 0.27763,-0.09255 0.30255,0.09603 0.37852,0.0707 0.27763,-0.09254 -0.10089,-0.163239 -0.0249,-0.188569 0.27764,-0.09254 0.31028,0.09848 0.37963,0.0725 0.27186,-0.101869 -0.10534,-0.170458 -0.0361,-0.205687 0.25471,-0.129633 0.25348,0.06632 0.35539,0.0333 0.27898,-0.09039 -0.0799,-0.12922 0.0603,-0.152676 0.41618,-0.06968 0.30123,0.07026 0.43642,0.05785 0.30822,-0.02833 -0.28919,-0.19439 2.81962,-1.23237 3.12526,-1.043479 0.13945,0.08619 0.16388,0.05093 0.0699,-0.101084 -0.10736,-0.173705 -0.0377,-0.199651 0.27221,-0.101315 0.30255,0.09603 0.37852,0.0707 0.27763,-0.09254 -0.10089,-0.163246 -0.0249,-0.18857 0.27764,-0.09254 0.31209,0.09906 0.3799,0.07294 0.27044,-0.10417 -0.10475,-0.1695 -0.0562,-0.201889 0.17153,-0.114495 0.21244,0.08152 0.27419,0.05162 0.18651,-0.09025 -0.0896,-0.14503 -0.002,-0.178237 0.27859,-0.104981 0.35644,0.09321 0.37825,0.06898 0.16776,-0.18624 -0.2165,-0.262533 -0.19582,-0.268787 0.19685,-0.05953 0.24133,0.128618 0.3886,0.152669 0.32727,0.05344 -0.0614,-0.09923 0.0871,-0.18042 0.3298,-0.18042 0.24271,0 0.63453,-0.135349 0.8707,-0.30077 l 0.42941,-0.30077 h -0.65814 c -0.36199,0 -0.70897,0.05086 -0.77109,0.112949 -0.0621,0.06212 -0.50751,0.144037 -0.98975,0.182029 -0.48224,0.03799 -0.93663,0.165891 -1.00975,0.284205 -0.0731,0.118314 -0.26629,0.163945 -0.42926,0.101406 -0.16297,-0.06254 -0.29632,-0.02329 -0.29632,0.08716 0,0.110479 -0.1667,0.157272 -0.37043,0.103995 -0.23102,-0.06044 -0.32512,-0.02358 -0.25003,0.09795 0.0796,0.128885 -0.0508,0.151858 -0.38542,0.06786 -0.36903,-0.09262 -0.46879,-0.06702 -0.36885,0.09471 0.0962,0.155655 0.018,0.190563 -0.26238,0.117222 -0.25591,-0.06695 -0.35564,-0.03365 -0.27763,0.09254 0.078,0.126227 -0.0218,0.159469 -0.27763,0.09254 -0.25347,-0.06632 -0.35538,-0.0333 -0.27897,0.09038 0.0799,0.129221 -0.0603,0.152677 -0.41619,0.06968 -0.41761,-0.0974 -0.47503,-0.07966 -0.25896,0.08004 0.22188,0.163987 0.17653,0.189073 -0.22576,0.124903 -0.31003,-0.04945 -0.45888,-0.0083 -0.38751,0.107213 0.0711,0.114922 -0.0387,0.147073 -0.28348,0.08306 -0.21966,-0.05743 -0.36035,-0.04127 -0.31264,0.03589 0.13304,0.215272 -1.34459,0.600281 -1.80647,0.470697 -0.26853,-0.07534 -0.32683,-0.05771 -0.17032,0.05142 0.32209,0.22461 -1.12717,0.659133 -1.68056,0.503876 -0.26853,-0.07534 -0.32682,-0.05771 -0.17032,0.05142 0.32208,0.22461 -1.12718,0.659134 -1.68057,0.503877 -0.26618,-0.07468 -0.32603,-0.05716 -0.17197,0.05037 0.32393,0.226066 -7.78939,2.69571 -8.34463,2.540054 -0.25356,-0.07108 -0.32007,-0.05373 -0.17734,0.04631 0.20351,0.142589 -0.6673,0.478987 -3.46744,1.339507 -0.3606,0.110815 -0.25834,0.145113 0.46326,0.155396 0.50929,0.0073 1.13397,0.09614 1.38816,0.197511 0.69595,0.27753 0.89171,0.230913 0.36964,-0.08802 z m 2.03597,-0.444562 c -0.15269,-0.09869 -0.36092,-0.179419 -0.46272,-0.179419 -0.10179,0 -0.0601,0.08074 0.0925,0.179419 0.1527,0.09868 0.36092,0.17942 0.46272,0.17942 0.10179,0 0.0601,-0.08074 -0.0926,-0.17942 z m -5.2326,-0.296915 c -0.0615,-0.06149 -0.22114,-0.06806 -0.35475,-0.01462 -0.14764,0.05911 -0.1038,0.102946 0.11183,0.111823 0.19511,0.0081 0.30443,-0.03567 0.24292,-0.09721 z M 132.2192,71.88858 c -0.29786,-0.358895 -0.0585,-0.499644 0.45314,-0.266506 0.31732,0.144582 0.78647,0.143358 1.67797,-0.0042 0.68062,-0.112788 1.30906,-0.160833 1.39653,-0.106779 0.0875,0.05408 0.13614,0.01923 0.10817,-0.0773 -0.0798,-0.275622 1.148,-1.542164 1.365,-1.408054 0.13393,0.08278 0.13664,0.01232 0.009,-0.226751 -0.20725,-0.387255 -0.17644,-1.357456 0.055,-1.731944 0.0948,-0.153425 0.0787,-0.199518 -0.0434,-0.124058 -0.10685,0.06604 -0.24466,-0.01119 -0.30622,-0.171626 -0.17409,-0.453642 -0.1326,-0.666221 0.10174,-0.521387 0.12564,0.07765 0.1637,0.05121 0.0923,-0.06422 -0.0667,-0.107968 -0.26699,-0.158294 -0.44504,-0.111823 -0.26596,0.06939 -0.31206,0.25113 -0.25837,1.018554 0.0766,1.095252 -0.12365,1.369893 -0.94876,1.301051 -0.75349,-0.06289 -1.22306,0.518161 -0.77827,0.962968 0.36986,0.36985 0.34431,0.485044 -0.10758,0.485044 -0.25115,0 -0.33655,-0.07889 -0.25048,-0.23136 0.1045,-0.185094 0.0808,-0.185094 -0.11863,0 -0.1371,0.127247 -0.5202,0.23136 -0.85135,0.23136 -1.72765,0 -2.44461,-1.345284 -1.92087,-3.604265 0.19457,-0.839261 0.59651,-1.208033 1.31669,-1.208033 0.61987,0 0.84104,0.66091 0.53327,1.593496 -0.11451,0.346933 -0.16545,0.734175 -0.11321,0.860533 0.057,0.137706 0.14569,0.06289 0.22155,-0.186694 0.0696,-0.229053 0.19007,-0.416454 0.26765,-0.416454 0.15242,0 0.61696,-1.013546 0.55949,-1.220709 -0.0192,-0.06933 0.0763,-0.196566 0.21219,-0.282743 0.17466,-0.110717 0.11144,-0.161323 -0.21555,-0.172515 -0.42568,-0.01455 -0.43309,-0.02875 -0.0925,-0.177139 0.35862,-0.156258 0.35701,-0.165233 -0.0515,-0.28757 -0.2847,-0.08527 -0.3899,-0.22624 -0.32393,-0.434118 0.0698,-0.21972 -0.0209,-0.316775 -0.31637,-0.339042 -0.25249,-0.01903 -0.32618,0.02316 -0.18883,0.108025 0.1529,0.09451 0.0367,0.250626 -0.36199,0.486107 -0.40725,0.240567 -0.60937,0.280484 -0.65946,0.130228 -0.0397,-0.119168 -0.21104,-0.223246 -0.3807,-0.231285 -0.22326,-0.01056 -0.23878,-0.04232 -0.0562,-0.114948 0.21301,-0.08471 0.21301,-0.125632 0,-0.262765 -0.1583,-0.101902 -0.0373,-0.121224 0.32498,-0.05183 0.45146,0.08647 0.66285,0.01875 0.96976,-0.31069 0.4857,-0.521344 0.37996,-0.679881 -0.1881,-0.282001 -0.23283,0.163086 -0.67549,0.286856 -0.98368,0.275041 -0.36023,-0.01378 -0.42815,-0.04946 -0.19018,-0.09975 0.20359,-0.04303 0.56099,-0.119125 0.7942,-0.169045 0.2332,-0.04994 0.37054,-0.177286 0.30518,-0.283043 -0.0654,-0.105751 -0.23535,-0.147569 -0.37775,-0.09293 -0.1424,0.05464 -0.25891,0.02602 -0.25891,-0.06359 0,-0.08964 -0.2177,-0.139084 -0.48376,-0.109878 -0.49725,0.05457 -0.86188,0.423975 -0.69117,0.700197 0.053,0.08567 -0.007,0.280533 -0.13385,0.433041 -0.22212,0.267632 -1.09736,1.913819 -1.09736,2.063948 0,0.04051 0.1874,0.01777 0.41644,-0.05051 0.39505,-0.117777 0.39859,-0.110522 0.0688,0.141238 -0.45864,0.350109 -0.47936,0.913418 -0.0859,2.335499 0.4296,1.552622 0.57161,1.70306 1.48691,1.575036 l 0.74322,-0.10396 -0.39606,0.396055 c -0.41885,0.418853 -0.36839,0.752733 0.11376,0.752733 0.22109,0 0.24073,-0.05863 0.0832,-0.248388 z m -1.40054,-1.548243 c -0.10043,-0.263785 -0.0791,-0.285044 0.10362,-0.10361 0.12649,0.125555 0.18336,0.274901 0.12637,0.331886 -0.0571,0.05701 -0.16048,-0.04575 -0.22999,-0.228276 z m 4.79834,-0.05093 c 0.0807,-0.130536 0.0342,-0.296454 -0.10768,-0.384128 -0.39283,-0.242778 -0.0848,-0.386793 0.40677,-0.190165 0.24383,0.09753 0.33921,0.182609 0.21196,0.189067 -0.12724,0.0063 -0.21053,0.105435 -0.18508,0.219958 0.0254,0.114523 -0.0694,0.250263 -0.21085,0.301644 -0.1687,0.06128 -0.20829,0.01441 -0.11512,-0.136376 z m -0.73829,-0.558581 c 0.0629,-0.101798 0.15112,-0.185093 0.19601,-0.185093 0.0449,0 0.0816,0.0833 0.0816,0.185093 0,0.101798 -0.0882,0.185086 -0.19601,0.185086 -0.10781,0 -0.14453,-0.08329 -0.0816,-0.185086 z m 7.39428,2.01186 c 0.0967,-0.08853 0.28868,-0.160979 0.42661,-0.160979 0.43585,0 1.96972,-0.761526 2.46066,-1.221653 0.40993,-0.384212 0.47787,-0.617399 0.51771,-1.776638 0.0435,-1.266242 0.2299,-1.814008 0.61726,-1.814008 0.0953,0 0.11343,0.104114 0.0403,0.231361 -0.0733,0.127248 -0.0712,0.175838 0.004,0.107968 0.0757,-0.06786 0.13575,-0.192795 0.13342,-0.277629 -0.007,-0.234929 0.74937,-0.986955 0.89898,-0.894489 0.0723,0.0447 0.10068,-0.145289 0.0631,-0.422155 -0.0589,-0.433579 -0.0442,-0.452054 0.10627,-0.133215 0.11848,0.251109 0.17792,0.280875 0.18482,0.09254 0.0117,-0.317727 -0.24572,-0.779658 -0.42129,-0.756161 -0.44117,0.05904 -0.67834,-0.01154 -0.57898,-0.172298 0.064,-0.103463 0.21461,-0.129115 0.33483,-0.05701 0.14091,0.08453 0.1335,0.0261 -0.0209,-0.164498 -0.1317,-0.162581 -0.37853,-0.275188 -0.54852,-0.250242 -0.38992,0.05722 -1.05055,-0.541379 -0.8879,-0.804548 0.0772,-0.12482 0.006,-0.152431 -0.19576,-0.07527 -0.18776,0.07206 -0.27162,0.0475 -0.20512,-0.06016 0.072,-0.116384 -0.23414,-0.136089 -0.8488,-0.05463 -0.52872,0.07006 -1.02377,0.09126 -1.10012,0.04708 -0.0764,-0.04414 -0.13882,0.0079 -0.13882,0.11574 0,0.1078 -0.22904,0.201861 -0.509,0.209017 -0.27994,0.0072 -0.67557,0.08459 -0.87917,0.172082 -0.33041,0.141987 -0.33422,0.160462 -0.0353,0.172074 0.18416,0.0072 0.28354,0.096 0.22087,0.197419 -0.0724,0.117119 -0.29751,0.08951 -0.61689,-0.07566 -0.46574,-0.24084 -0.54569,-0.22368 -1.08136,0.23204 -0.94516,0.804093 -1.53632,2.379947 -1.53853,4.101328 -0.002,1.048509 0.27802,1.69568 1.10364,2.556647 0.22581,0.235467 0.43269,0.568627 0.45976,0.74035 0.0289,0.18338 0.18186,0.288025 0.37066,0.253573 0.17951,-0.03274 0.27055,0.02372 0.20619,0.127855 -0.13944,0.225597 1.19329,0.05562 1.45702,-0.185855 z m -0.0641,-1.2021 c 0.11616,-0.139972 0.34677,-0.253222 0.51245,-0.251662 0.24069,0.0021 0.25053,0.03498 0.049,0.16268 -0.21301,0.134956 -0.21301,0.173578 0,0.24801 0.13877,0.04848 0.0217,0.08981 -0.26015,0.09181 -0.414,0.0028 -0.47187,-0.04526 -0.30124,-0.250843 z m -2.89804,-0.455713 c -0.23009,-0.372285 0.19179,-0.487066 0.51895,-0.141196 0.30914,0.3268 0.30754,0.342414 -0.0353,0.342414 -0.19758,0 -0.41522,-0.09055 -0.4836,-0.201218 z m 1.43421,-0.283001 c -0.19929,-0.356104 -0.77643,-0.517476 -0.77643,-0.217098 0,0.12084 -0.0951,0.11241 -0.25816,-0.02288 -0.14198,-0.117838 -0.35996,-0.190501 -0.4844,-0.161483 -0.12445,0.02903 -0.25077,-0.09299 -0.28074,-0.271137 -0.0305,-0.181232 0.0606,-0.323905 0.20677,-0.323905 0.14369,0 0.26126,0.07133 0.26126,0.158525 0,0.08719 0.25376,0.149654 0.56391,0.138817 0.48572,-0.017 0.55769,-0.08387 0.51903,-0.482427 -0.0247,-0.254502 0.0713,-1.108222 0.21329,-1.897156 l 0.25815,-1.434434 0.65724,0.0028 c 0.79179,0.0035 0.95736,0.109493 1.29562,0.83006 0.29488,0.628172 0.3197,0.706144 0.36822,1.156806 0.0562,0.52247 0.38536,-0.449879 0.4332,-1.279863 0.0225,-0.390277 0.1242,-0.71551 0.226,-0.722729 0.1018,-0.0072 0.0186,-0.09227 -0.18508,-0.189003 -0.32107,-0.152551 -0.3088,-0.162911 0.0925,-0.07809 0.25449,0.05379 0.66255,0.150927 0.90677,0.21588 0.28382,0.07547 0.40144,0.0491 0.32595,-0.07302 -0.065,-0.105114 0.006,-0.294033 0.15748,-0.419832 0.16729,-0.138846 0.2756,-0.153145 0.2756,-0.03638 0,0.105779 -0.10412,0.234342 -0.23137,0.285681 -0.12724,0.05135 -0.0232,0.103197 0.23137,0.115216 0.43029,0.02036 0.41894,0.04086 -0.16181,0.292977 -0.55851,0.242456 -0.6128,0.329745 -0.51362,0.825653 0.0625,0.312649 0.0322,0.554531 -0.0695,0.554531 -0.0993,0 -0.18046,0.124939 -0.18046,0.277636 0,0.152697 0.11522,0.277629 0.25606,0.277629 0.14083,0 0.29585,0.208227 0.34451,0.462722 0.0567,0.296748 0.004,0.462722 -0.14618,0.462722 -0.14843,0 -0.1967,-0.145128 -0.13136,-0.394957 0.0721,-0.275495 0.0293,-0.370263 -0.14161,-0.313327 -0.13469,0.04491 -0.41802,0.618252 -0.6296,1.274126 -0.45521,1.410993 -0.79942,1.573728 -1.57426,0.744262 -0.65153,-0.697469 -0.71404,-0.702289 -0.78786,-0.06072 -0.0701,0.609276 -0.75701,0.80892 -1.04047,0.302407 z m 2.90722,-0.839022 c 0.24387,-0.699547 0.25619,-0.897903 0.0339,-0.546947 -0.273,0.431144 -0.7021,0.09112 -0.83289,-0.660001 -0.25506,-1.464781 -0.76583,-2.182425 -1.18829,-1.669573 -0.0998,0.121196 -0.27027,0.678455 -0.37874,1.238344 -0.10848,0.559896 -0.25082,1.205389 -0.31633,1.434434 -0.0846,0.295943 -0.041,0.416454 0.15082,0.416454 0.15455,0 0.36473,-0.316454 0.49174,-0.740358 0.122,-0.407192 0.32259,-0.738385 0.44575,-0.735986 0.12316,0.0021 0.40603,0.418846 0.62858,0.925437 0.22256,0.506598 0.4851,0.921079 0.58344,0.921079 0.0983,0 0.27021,-0.262295 0.38196,-0.582883 z m 0.51472,-2.043053 c -0.0591,-0.147654 -0.10294,-0.103792 -0.11182,0.111822 -0.008,0.19511 0.0357,0.304428 0.0972,0.242932 0.0615,-0.06149 0.0681,-0.221148 0.0146,-0.354754 z m 0.73208,1.793042 c 0.0586,-0.152697 0.13927,-0.277636 0.17928,-0.277636 0.04,0 0.0728,0.124939 0.0728,0.277636 0,0.152697 -0.0807,0.277629 -0.17928,0.277629 -0.0986,0 -0.13134,-0.124932 -0.0727,-0.277629 z m -5.62293,-0.31211 c -0.29123,-0.351389 -0.11848,-0.52673 0.49197,-0.499315 0.29281,0.01315 0.35701,0.05345 0.16561,0.103918 -0.17188,0.04533 -0.33846,0.215243 -0.37018,0.377531 -0.0509,0.260763 -0.0844,0.26284 -0.2874,0.01784 z m -0.002,-0.828843 c -0.12789,-0.05156 -0.18544,-0.169913 -0.12789,-0.263016 0.16249,-0.262917 0.39124,-0.19956 0.39124,0.108346 0,0.152704 -0.007,0.27106 -0.0154,0.263022 -0.008,-0.0081 -0.12004,-0.05681 -0.24793,-0.108352 z m 0.0579,-1.357743 c 0.15668,-0.809438 0.19316,-0.847165 0.5404,-0.558972 0.37107,0.307953 0.35684,0.543022 -0.0418,0.690102 -0.17814,0.06569 -0.39142,0.208871 -0.47395,0.318091 -0.0825,0.109227 -0.0936,-0.09292 -0.0246,-0.449221 z m 6.56024,0.112347 c 0,-0.04002 0.12494,-0.120679 0.27764,-0.179279 0.1527,-0.05862 0.27763,-0.02589 0.27763,0.07275 0,0.0986 -0.12493,0.17928 -0.27763,0.17928 -0.1527,0 -0.27764,-0.03274 -0.27764,-0.07275 z m 0.37018,-0.667612 c 0,-0.101798 0.0882,-0.185086 0.19602,-0.185086 0.10781,0 0.14453,0.08329 0.0816,0.185086 -0.0629,0.101798 -0.15111,0.185093 -0.196,0.185093 -0.0449,0 -0.0816,-0.08329 -0.0816,-0.185093 z m -6.15419,-0.127583 c -0.17815,-0.04652 -0.3239,-0.190732 -0.3239,-0.320385 0,-0.321295 0.56639,-0.935553 1.01767,-1.103682 0.30091,-0.112102 0.27503,-0.03883 -0.13881,0.393152 -0.48139,0.502449 -0.68932,0.921806 -0.35445,0.714846 0.0848,-0.05246 0.15424,0.02595 0.15424,0.174166 0,0.148219 -0.007,0.259825 -0.0154,0.248017 -0.008,-0.01183 -0.16118,-0.05953 -0.33933,-0.106114 z m 2.20565,-0.365982 c -0.18816,-0.188143 -0.14717,-0.431872 0.0726,-0.431872 0.10779,0 0.14892,0.07617 0.0914,0.169276 -0.0575,0.0931 1e-5,0.211466 0.1279,0.263023 0.12857,0.05183 0.14288,0.100272 0.0319,0.108352 -0.11028,0.0081 -0.25604,-0.04092 -0.32391,-0.108779 z m 2.1902,-0.802051 c -0.0629,-0.101798 -0.0262,-0.185086 0.0816,-0.185086 0.10781,0 0.19601,0.08329 0.19601,0.185086 0,0.101798 -0.0368,0.185086 -0.0816,0.185086 -0.0449,0 -0.13309,-0.08329 -0.19601,-0.185086 z m -0.60166,-0.307227 c 0.0206,-0.273663 0.18065,-0.372739 0.65352,-0.404589 0.39394,-0.02651 0.58224,0.02903 0.50762,0.14973 -0.0653,0.105555 -0.26361,0.191907 -0.44084,0.191907 -0.17723,0 -0.41795,0.09571 -0.53492,0.212683 -0.16017,0.160182 -0.20595,0.123225 -0.18538,-0.149731 z m 8.68325,7.728085 c 1.12719,-0.129192 1.59268,-0.282483 2.26732,-0.746646 0.46692,-0.321246 0.85156,-0.642547 0.85475,-0.714006 0.003,-0.07146 0.23225,-0.288297 0.509,-0.481862 0.32856,-0.229808 0.2302,-0.06681 -0.28345,0.469731 -0.43265,0.451914 -0.78662,0.879114 -0.78662,0.949334 0,0.07022 0.35213,-0.254348 0.78253,-0.721267 0.61911,-0.67167 0.77034,-0.965046 0.7242,-1.404927 -0.0422,-0.402988 0.004,-0.517196 0.16975,-0.415027 0.17079,0.105554 0.19478,0.0063 0.0955,-0.395552 -0.073,-0.295075 -0.15401,-0.728144 -0.18021,-0.962366 -0.0262,-0.234222 -0.24718,-0.609025 -0.49105,-0.832894 l -0.4434,-0.407038 0.44395,0.508997 c 0.24417,0.279944 0.36184,0.50899 0.26149,0.50899 -0.29529,0 -1.01038,-0.74692 -0.89455,-0.934356 0.0594,-0.09612 -0.0337,-0.118189 -0.21135,-0.05009 -0.20281,0.07783 -0.27309,0.04988 -0.19444,-0.0774 0.0797,-0.128968 -0.0178,-0.162434 -0.27621,-0.09484 -0.25592,0.06694 -0.35565,0.03365 -0.27764,-0.09254 0.0767,-0.124058 -0.0154,-0.161119 -0.24869,-0.100112 -0.20373,0.0533 -0.37043,0.0056 -0.37043,-0.105225 0,-0.136671 -0.14337,-0.147591 -0.44285,-0.03372 -0.24358,0.09261 -0.63141,0.11907 -0.86185,0.05883 -0.28987,-0.07581 -0.37817,-0.04351 -0.28657,0.104681 0.0729,0.117831 0.065,0.220616 -0.0174,0.228402 -0.0823,0.0077 -0.28973,0.04121 -0.46083,0.07429 -0.2165,0.04183 -0.27749,-0.02743 -0.20059,-0.227828 0.0936,-0.243898 -0.0101,-0.268669 -0.67761,-0.161931 -1.59105,0.254425 -3.22177,1.397819 -3.91686,2.746356 -0.34242,0.664324 -0.51061,1.418071 -0.21231,0.951474 0.0748,-0.116985 0.34421,-0.252172 0.59871,-0.300406 0.46014,-0.08722 0.46041,-0.08847 0.0491,-0.224617 -0.41085,-0.135964 -0.40981,-0.140525 0.14983,-0.663303 0.30993,-0.289522 0.85007,-0.630026 1.2003,-0.756672 0.58212,-0.210493 0.72004,-0.369087 0.65872,-0.757441 -0.0121,-0.07635 0.15062,-0.138818 0.36148,-0.138818 0.34855,0 0.35695,0.02644 0.0925,0.290851 -0.15998,0.159972 -0.29086,0.359168 -0.29086,0.442658 0,0.08349 -0.198,0.201498 -0.44002,0.26224 -0.44138,0.11078 -1.04492,0.845891 -1.1212,1.36564 -0.0225,0.152774 -0.28418,0.393187 -0.58168,0.534237 -0.29748,0.141049 -0.40839,0.221267 -0.24647,0.178244 0.16193,-0.04303 0.4118,-0.0042 0.55526,0.08692 0.19564,0.123848 0.14516,0.171319 -0.20186,0.189885 -0.2545,0.01364 -0.51744,0.01749 -0.58432,0.0086 -0.22577,-0.03001 -0.0468,0.507213 0.2947,0.884535 0.18649,0.206079 0.42411,0.32214 0.52803,0.257915 0.10518,-0.06499 0.13295,-0.02616 0.0626,0.08763 -0.15264,0.246975 0.42885,0.579798 0.78898,0.451579 0.1502,-0.05345 0.20619,-0.0092 0.13466,0.10659 -0.0824,0.133319 0.10598,0.166436 0.57578,0.101231 0.5359,-0.07438 0.63368,-0.04967 0.42059,0.106135 -0.21221,0.155195 -0.10317,0.180007 0.46272,0.105275 0.4072,-0.0538 1.37864,-0.170921 2.15876,-0.260337 z m -0.99039,-0.143763 c 0.13361,-0.05344 0.29325,-0.04687 0.35475,0.01462 0.0615,0.06149 -0.0478,0.105247 -0.24293,0.09722 -0.21561,-0.0089 -0.25947,-0.05275 -0.11182,-0.111829 z m -0.9315,-0.548466 c -0.49208,-0.259447 -0.50162,-0.296642 -0.42055,-1.640576 0.0461,-0.762415 0.22939,-1.686858 0.41161,-2.074778 0.32231,-0.686171 0.35055,-0.700721 1.46331,-0.754216 0.85228,-0.041 1.20907,0.01987 1.43377,0.244583 0.16452,0.164519 0.29912,0.360546 0.29912,0.435614 0,0.350592 -0.52237,0.785493 -1.02139,0.850362 -0.30353,0.03946 -0.5935,0.08217 -0.6444,0.09493 -0.0509,0.01273 0.19897,0.122616 0.55526,0.244113 0.50002,0.170514 0.64781,0.322673 0.64781,0.666933 0,0.358854 -0.14469,0.490705 -0.74035,0.674671 -0.63787,0.197007 -0.67141,0.231348 -0.24228,0.248067 0.92573,0.0361 0.87354,0.785359 -0.0778,1.117007 -0.71173,0.248109 -1.02982,0.227709 -1.6641,-0.106709 z m 1.01247,-0.481295 c -0.33084,-0.106135 -0.60153,-0.293207 -0.60153,-0.415719 0,-0.200063 0.76047,-0.599588 1.75315,-0.921037 0.30523,-0.09885 0.32038,-0.146401 0.0925,-0.290493 -0.14984,-0.09476 -0.50149,-0.173572 -0.78143,-0.175132 -0.90079,-0.0049 -0.55599,-0.889711 0.42496,-1.090334 1.00375,-0.205289 0.90345,-0.578294 -0.15551,-0.578294 -1.05276,0 -1.19934,0.130787 -1.49209,1.331307 -0.42983,1.762738 -0.1944,2.377275 0.89873,2.345936 0.41443,-0.01189 0.39993,-0.03344 -0.13882,-0.206234 z m -4.3484,-0.06114 c -0.20188,-0.201889 0.0293,-0.448473 0.4204,-0.448473 0.24644,0 0.31938,0.08874 0.24095,0.293153 -0.0815,0.212395 -0.15022,0.232116 -0.24942,0.07161 -0.10396,-0.168199 -0.1544,-0.16915 -0.20946,-0.0042 -0.0399,0.119679 -0.131,0.159134 -0.20247,0.08767 z m 0.878,-3.224798 c 0.0629,-0.101797 0.19768,-0.185086 0.29948,-0.185086 0.1018,0 0.13361,0.08329 0.0707,0.185086 -0.0629,0.101798 -0.19768,0.185093 -0.29948,0.185093 -0.1018,0 -0.13361,-0.08329 -0.0707,-0.185093 z m 0.56827,-0.349129 c -0.0557,-0.09023 0.058,-0.205737 0.25286,-0.256685 0.24802,-0.06485 0.32471,-0.01567 0.25574,0.164044 -0.11182,0.291424 -0.35803,0.336272 -0.5086,0.09264 z m 5.0268,5.049606 c -0.0615,-0.06149 -0.22115,-0.06807 -0.35475,-0.01462 -0.14766,0.05911 -0.1038,0.102945 0.11182,0.111822 0.19511,0.0081 0.30443,-0.03567 0.24293,-0.09721 z m -23.08592,-0.51332 c 0,-0.0384 -0.14575,-0.184198 -0.3239,-0.323911 -0.29357,-0.230221 -0.30011,-0.223673 -0.0699,0.06989 0.2418,0.308311 0.39379,0.406359 0.39379,0.254026 z m 5.76134,-0.439112 c 0.23024,-0.293565 0.22369,-0.300113 -0.0698,-0.06989 -0.17815,0.139713 -0.32391,0.28547 -0.32391,0.323903 0,0.152333 0.15199,0.05429 0.39379,-0.254019 z m -9.65338,-0.594419 c 0.2284,-0.144443 0.21344,-0.194159 -0.0926,-0.307549 -0.20074,-0.07439 -0.67732,-0.32978 -1.05907,-0.567542 -0.61519,-0.383163 -0.69408,-0.516832 -0.69408,-1.176133 0,-0.855462 0.23487,-1.018617 1.20447,-0.836714 0.74381,0.139539 0.86551,0.583618 0.22997,0.839078 -0.41436,0.166548 -0.41413,0.167437 0.0462,0.176286 0.74205,0.01427 0.96854,-0.21814 0.75638,-0.776161 -0.23534,-0.619007 -0.77706,-0.902198 -1.86775,-0.976392 -0.87151,-0.05925 -0.87211,-0.0589 -0.85926,0.529998 0.0309,1.415042 -0.0745,2.363844 -0.25043,2.255106 -0.28886,-0.178517 -0.21719,0.271984 0.0925,0.581708 0.24679,0.246786 0.27763,0.235034 0.27763,-0.105764 0,-0.499309 0.20621,-0.483513 1.03559,0.07932 0.76285,0.517678 0.79841,0.526262 1.18028,0.284758 z m -4.3105,-0.597091 c -0.0591,-0.147653 -0.10294,-0.103791 -0.11182,0.111822 -0.008,0.195118 0.0358,0.304436 0.0972,0.242932 0.0614,-0.06149 0.068,-0.221141 0.0146,-0.354754 z m 6.11727,-2.261465 c -0.0238,-1.466495 0.0192,-2.627637 0.0956,-2.580313 0.19031,0.117951 0.16962,-0.155782 -0.0363,-0.481428 -0.13409,-0.211941 -0.18946,-0.173235 -0.26476,0.185093 -0.12601,0.599526 -0.30202,1.65761 -0.35246,2.118856 -0.0222,0.203604 -0.1548,0.416496 -0.29451,0.473103 -0.21532,0.08723 -0.21532,0.143645 0,0.370173 0.13971,0.146995 0.24569,0.49218 0.23549,0.767087 -0.0102,0.274901 0.0925,0.542442 0.22824,0.594531 0.13573,0.05211 0.19763,0.222792 0.13756,0.379343 -0.10983,0.286199 0.0214,0.839903 0.19918,0.839903 0.0525,0 0.0759,-1.199861 0.0521,-2.666348 z m 5.44943,2.064809 c 0.31858,-0.63493 0.45901,-1.000562 0.72383,-1.88467 0.18914,-0.631432 0.12102,-0.560427 -0.8315,0.866682 -0.47348,0.709404 -0.83488,1.064263 -1.08387,1.064263 -0.34213,0 -0.36364,-0.08165 -0.25597,-0.97172 0.0646,-0.534439 0.16931,-1.200757 0.23257,-1.480701 0.0632,-0.279945 0.0428,-0.507717 -0.0454,-0.506165 -0.4464,0.0079 -0.66209,0.411837 -0.75055,1.405649 -0.0827,0.929501 -0.0376,1.165248 0.30626,1.599205 0.57992,0.731886 1.31086,0.6922 1.70462,-0.09254 z m 4.3509,-0.728788 c -0.0591,-0.147646 -0.10294,-0.103792 -0.11183,0.111829 -0.008,0.195111 0.0357,0.304429 0.0972,0.242925 0.0615,-0.06149 0.068,-0.221141 0.0146,-0.354754 z m -2.39984,-0.626773 c 0.007,-0.568542 -0.0749,-0.879672 -0.25129,-0.947361 -0.15995,-0.06135 -0.21958,-0.236516 -0.15251,-0.447884 0.0828,-0.260686 0.0384,-0.319567 -0.17801,-0.236509 -0.20083,0.07707 -0.23864,0.199125 -0.12473,0.402665 0.10223,0.182659 0.0669,0.565527 -0.0941,1.022045 -0.35004,0.992117 -0.33451,1.053615 0.26586,1.053615 0.49655,0 0.524,-0.04344 0.53478,-0.846571 z m -6.4844,-0.298664 c -0.0591,-0.147653 -0.10295,-0.103792 -0.11183,0.111822 -0.008,0.195111 0.0358,0.304429 0.0972,0.242932 0.0615,-0.06149 0.068,-0.221148 0.0146,-0.354754 z m 17.41911,-0.794391 c 0.20684,-0.247269 0.14083,-0.221952 -0.19484,0.07474 -0.27922,0.246792 -0.50239,0.621596 -0.49594,0.832894 0.0105,0.343505 0.0311,0.335593 0.19484,-0.07473 0.1007,-0.252402 0.32388,-0.627206 0.49594,-0.832901 z m -17.41728,-0.23164 c -0.0469,-0.180085 -0.0884,-0.07756 -0.0922,0.227834 -0.003,0.305394 0.0346,0.45274 0.0853,0.32743 0.0507,-0.12531 0.0538,-0.375181 0.007,-0.555264 z m 8.88241,-0.269592 c -0.0591,-0.147646 -0.10294,-0.103792 -0.11183,0.11183 -0.008,0.19511 0.0357,0.304428 0.0972,0.242924 0.0615,-0.06149 0.068,-0.22114 0.0146,-0.354754 z m -1.89545,0.05197 c 0.0571,-0.0923 -0.0629,-0.124239 -0.26671,-0.07096 -0.43217,0.113019 -0.4868,0.23879 -0.10372,0.23879 0.1467,0 0.31339,-0.07552 0.37043,-0.167828 z m -6.8037,-0.792321 c -0.0591,-0.147653 -0.10294,-0.103792 -0.11183,0.111823 -0.008,0.195117 0.0357,0.304436 0.0972,0.242931 0.0614,-0.06149 0.068,-0.22114 0.0146,-0.354754 z m 5.6113,-0.44794 c 0,-0.153187 -0.35939,-0.239812 -0.44179,-0.106485 -0.0535,0.08649 0.024,0.157258 0.1723,0.157258 0.14822,0 0.26949,-0.02288 0.26949,-0.05078 z m -2.40615,-0.257706 c 0.1527,-0.09869 0.19434,-0.17942 0.0925,-0.17942 -0.10179,0 -0.31002,0.08074 -0.46271,0.17942 -0.15271,0.09868 -0.19435,0.17942 -0.0925,0.17942 0.1018,0 0.31003,-0.08074 0.46272,-0.17942 z m 19.75818,0.0575 c -0.17814,-0.04659 -0.46966,-0.04659 -0.64781,0 -0.17814,0.04659 -0.0324,0.08465 0.32391,0.08465 0.35629,0 0.50204,-0.03813 0.3239,-0.08465 z m -17.72218,-0.300511 c 0,-0.03183 -0.27069,-0.302547 -0.60153,-0.601533 l -0.60154,-0.543624 0.54362,0.601539 c 0.50673,0.560715 0.65945,0.686612 0.65945,0.543618 z m -4.23326,-1.145157 0.18174,-0.370179 -0.3014,0.370179 c -0.16578,0.203596 -0.38319,0.536755 -0.48315,0.74035 l -0.18174,0.370179 0.30141,-0.370179 c 0.16577,-0.203595 0.38319,-0.536754 0.48314,-0.74035 z m 3.12273,0.647808 c 0,-0.101799 -0.0368,-0.185086 -0.0816,-0.185086 -0.0449,0 -0.1331,0.08329 -0.19602,0.185086 -0.0629,0.101798 -0.0262,0.185093 0.0816,0.185093 0.10781,0 0.19601,-0.0833 0.19601,-0.185093 z m -4.81513,-0.416448 c -0.004,-0.337398 -0.32761,-0.795516 -0.46481,-0.6583 -0.0647,0.0647 -0.0246,0.291319 0.089,0.503631 0.23358,0.436426 0.38002,0.496692 0.37583,0.154669 z m -4.56377,-1.491279 c 0.0787,-0.27623 0.048,-0.295208 -0.17638,-0.108982 -0.14945,0.12403 -0.45376,0.482771 -0.67627,0.797203 l -0.40454,0.571704 0.58093,-0.462722 c 0.31952,-0.254495 0.62383,-0.613236 0.67626,-0.797203 z m 4.56657,0.357147 c 0,-0.0384 -0.14576,-0.184191 -0.3239,-0.323904 -0.29357,-0.230228 -0.30012,-0.22368 -0.0699,0.06989 0.24179,0.308304 0.39379,0.406352 0.39379,0.254019 z m 14.85588,-0.245499 c -0.22764,-0.04393 -0.6441,-0.04505 -0.92544,-0.0028 -0.28134,0.04254 -0.0951,0.07849 0.4139,0.07988 0.509,0.0014 0.73919,-0.03344 0.51154,-0.07735 z m -17.3083,-0.737644 c -0.17814,-0.04659 -0.46966,-0.04659 -0.64781,0 -0.17815,0.04659 -0.0324,0.08465 0.32391,0.08465 0.35629,0 0.50204,-0.03805 0.3239,-0.08465 z"
       id="path2913"
       inkscape:connector-curvature="0" />
  </g>
</svg>
